<?xml version="1.0" encoding="utf-8"?>
<!-- Generator: Adobe Illustrator 22.0.1, SVG Export Plug-In . SVG Version: 6.00 Build 0)  -->
<svg version="1.1" id="Layer_1" xmlns="http://www.w3.org/2000/svg" xmlns:xlink="http://www.w3.org/1999/xlink" x="0px" y="0px"
	 viewBox="0 0 336.6 282.5" style="enable-background:new 0 0 336.6 282.5;" xml:space="preserve">
<style type="text/css">
	.st0{fill:#FFFFFF;}
	.st1{fill:#FD6441;}
	.st2{fill:#7D453F;}
	.st3{fill:#7C5C63;}
	.st4{fill:#EAEEED;}
	.st5{fill:#FB694A;}
	.st6{fill:#FB715B;}
	.st7{fill:#76677A;}
	.st8{fill:#F7E2E0;}
	.st9{fill:#EA634C;}
	.st10{fill:#FD522B;}
	.st11{fill:#7D3B34;}
	.st12{fill:#7C515B;}
	.st13{fill:#D5EEE8;}
	.st14{fill:#FB5734;}
	.st15{fill:#FB5E45;}
	.st16{fill:#745C7A;}
	.st17{fill:#F7CECB;}
	.st18{fill:#EA5238;}
	.st19{fill:#FD4401;}
	.st20{fill:#FE4F1C;}
	.st21{fill:#FD4C0F;}
	.st22{fill:#FA5D36;}
	.st23{fill:#FE5424;}
	.st24{fill:#FB806C;}
	.st25{fill:#FD3503;}
	.st26{fill:#A45960;}
	.st27{fill:#FC2800;}
	.st28{fill:#E6EFED;}
	.st29{fill:#FE4622;}
	.st30{fill:#D9E6E3;}
</style>
<g>
	<path class="st0" d="M112.6,15.6C63.9,29,28.6,77.8,26.6,128.2s26.5,99.9,68.8,127.6c16.7,10.9,35.8,18.9,55.7,20.2
		c28.1,1.8,55.7-10,78.7-26.2c29.1-20.6,53-49.4,64.1-83.3c11.1-33.9,8.3-72.8-10.8-102.9c-19-30-52.1-48.7-86.2-58.5
		C172-2.1,121.4,12.7,112.6,15.6z"/>
</g>
<g>
	<path class="st1" d="M113.6,15.5c0,0.2,0,0.4,0,0.6c-0.2,1.9-0.5,3.8-0.5,5.7c0.1,3.6,0.2,7.3,0.5,10.9c0.2,2.8-0.7,4-3.6,3.9
		c-5.2-0.2-10.4,0-15.6,0c-1.3,0-2.5,0.1-4,0.2c0,2.1,0,3.8,0,5.5c-0.5,0.7-1.1,1.3-1.6,2c-0.4-1.6-0.1-3,0-4.4
		c0-0.6-0.4-1.4-0.9-1.7c-0.3-0.2-1.4,0-1.6,0.3c-1.9,3.1-3.1,1.4-4.5-0.5c-0.4-0.6-1.2-0.9-2.3-1.7c-0.4,2.4-0.8,4.4-1.2,6.3
		c-0.2,0.8-0.5,1.5-0.7,2.2c-0.7-0.3-1.5-0.6-2.1-1c-0.5-0.3-1-0.9-1.9-1.7c-0.3,3.8-0.5,7-0.8,10.4c-1.7-0.7-2.7-1.1-3.7-1.5
		c0-1.7,0-3.4,0-5.1c1.8,0.1,2-0.9,2.2-2.5c0.7-4.4-1.9-8.7-0.4-13.1c0.1-0.2-0.8-0.8-1.2-1.2c0-1,0-1.9,0-2.9
		c0.2-1,0.5-1.9,0.7-2.9c0.2-0.8,0.8-1.8,0.5-2.3c-1.3-2.2-0.5-4.3,0.2-6.4l0.4-0.1l0.4,0.1c1,0,1.9,0,2.9,0
		c3.2-0.3,6.3-0.6,9.5-0.9c0.7,0,1.5,0,2.2,0c8.8,0,17.5,0,26.3,0.1c0,0.2,0.1,0.5,0.1,0.7C113.3,15,113.5,15.2,113.6,15.5z"/>
	<path class="st2" d="M90.4,42.4c0-1.7,0-3.4,0-5.5c1.5-0.1,2.7-0.2,4-0.2c5.2,0,10.4-0.2,15.6,0c3,0.1,3.9-1.1,3.6-3.9
		c-0.3-3.6-0.5-7.2-0.5-10.9c0-1.9,0.3-3.8,0.5-5.7c0.5,0.5,1,0.9,1.5,1.4c-0.3,7.5-0.5,15.1-0.8,22.6c-1.2,0.1-2.4,0.3-3.6,0.4
		c-1,0-1.9,0-2.9,0c-0.2,0-0.5,0-0.7,0c-0.7,0-1.5,0.1-2.2,0.1c-3,0.1-6,0.1-9.1,0.2c-2.2,0-2,1.6-2,3.1c0.3,5.3,0.5,10.6,0.8,15.9
		c-0.7,0-1.4,0.1-2.2,0.1c-0.2-1.3-0.5-2.5-0.7-3.8C91.3,51.6,90.9,47,90.4,42.4z"/>
	<path class="st3" d="M114.4,40.1c0.3-7.5,0.5-15.1,0.8-22.6c0.5,0.3,1,0.5,1.5,0.8c0.1,0.3,0.1,0.5,0.2,0.8c0.1,7,0.3,14,0.4,20.9
		C116.3,40,115.3,40.1,114.4,40.1z"/>
	<path class="st4" d="M113.6,15.5c-0.2-0.3-0.4-0.6-0.6-0.9C113.3,15,113.5,15.2,113.6,15.5z"/>
	<path class="st5" d="M90.4,42.4c0.5,4.6,0.9,9.2,1.4,13.8c0.1,1.3,0.4,2.5,0.7,3.8c0,1.4,0,2.7,0,3.4c5.1-0.1,9.5-0.7,13.9-0.2
		c2.6,0.3,4.5,0.3,5.9-2.4c0.3,0.1,0.6,0.3,0.9,0.4c0.2,3.4,0.3,6.9,0.5,10.3c-0.5,0.4-0.9,0.7-1.4,1.1c-1.2-3.6-3.5-5.6-6.7-5.1
		c-3,0.5-6.3-2-10,1c1.5,0.5,2.5,1.2,3.1,1c2.7-1.2,4.9,0.4,7.4,0.8c2.4,0.4,3.3,1.7,3.3,4c0,3,0,6.1,0,9.1c-0.5,0-1,0-1.5,0
		c-0.5-3.1-0.9-6.2-1.4-9.3c-3.7,0.4-4.8,2.8-4.9,4.9c-0.2,2.5-1.7,3.5-3.3,4.6c-2,0-4,0-6.1,0C92,84.9,91.8,86,91.7,87
		c-2,1.9-2.1,7.6-0.2,9.4c0.1,0.1,0.2,0.1,0.3,0.1c0,0.6,0,1.2,0,1.8c-0.1,1.1-0.4,2.1-0.4,3.2c0,0.5,0.6,1,0.9,1.5
		c0.1,3.1,2.7,1.5,4.1,2.2c1.3,0,2.7,0.1,4,0.1c3.8,0,7.5,0,11.3,0.1c1.9,0.1,4,0.3,4.3,2.9c0,5.1-0.1,10.1-0.1,15.2
		c-0.8,0.8-1.6,1.6-2.4,2.3c-0.9,0.9-1.8,1.7-2.7,2.6c-0.7,0-1.5,0-2.2,0c-0.2,0-0.5,0-0.7,0c-1.5,0-3-0.1-4.5-0.1
		c-0.2,0-0.4,0-0.6,0c-2.2-0.1-4.4-0.2-6.7-0.4c-1-0.5-2.1-1.4-3.1-1.5c-6-0.1-11.9-0.2-17.9,0c-2.8,0.1-4.1-0.9-3.8-3.8
		c0.3-4.7,0.7-9.4,0.7-14.1c0-6.8-0.5-13.7-0.6-20.5c0-2,0.5-4.1,0.5-6.1c0-3.4,0-6.9-0.3-10.3c-0.2-3-0.8-5.9-1.3-8.8
		c-0.1-0.4-1.2-0.5-1.9-0.7c-0.2-0.8-0.4-1.5-0.6-2.3c0.2,0,0.4,0.1,0.6,0.1c0-0.2,0-0.5,0-0.7c-0.1-2.7-0.1-5.3-0.2-8
		c0.3,0,0.6-0.1,1-0.1c1,0.4,2,0.8,3.7,1.5c0.3-3.4,0.5-6.6,0.8-10.4c1,0.9,1.4,1.4,1.9,1.7c0.7,0.4,1.4,0.7,2.1,1
		c0.3-0.7,0.6-1.4,0.7-2.2c0.4-1.9,0.7-3.9,1.2-6.3c1,0.7,1.8,1.1,2.3,1.7c1.4,1.9,2.6,3.6,4.5,0.5c0.2-0.3,1.3-0.5,1.6-0.3
		c0.5,0.4,0.9,1.1,0.9,1.7c-0.1,1.4-0.4,2.7,0,4.4C89.3,43.7,89.9,43,90.4,42.4z M88.9,68.5c-1.1-1.6-1.8-3.6-2.8-3.7
		c-2.1-0.3-1.6,1.9-1.6,3.2c0,1.5-0.4,3.5,1.9,3.4C87.2,71.4,87.9,69.8,88.9,68.5z M85.2,100.8c0.4,0,0.9,0.1,1.3,0.1
		c0.1-1.2,0.3-2.4,0.4-3.6c-0.7,0-1.6-0.2-2.1,0.1C83.1,98.7,84.2,99.8,85.2,100.8z M86.1,90.9c-0.5,0.1-1.1,0.1-1.6,0.2
		c0.1,1.3,0.3,2.6,0.4,3.8c0.5,0,1-0.1,1.4-0.1C86.3,93.5,86.2,92.2,86.1,90.9z"/>
	<path class="st6" d="M68.4,62.2c0.6,0.2,1.8,0.4,1.9,0.7c0.6,2.9,1.1,5.9,1.3,8.8c0.3,3.4,0.3,6.8,0.3,10.3c0,2-0.6,4.1-0.5,6.1
		c0.1,6.8,0.6,13.7,0.6,20.5c0,4.7-0.4,9.4-0.7,14.1c-0.2,2.9,1,3.8,3.8,3.8c6-0.1,11.9-0.1,17.9,0c1.1,0,2.1,0.9,3.1,1.5
		c-1.2,0-2.4,0-3.5,0c-1.5,0-3.1,0-4.6,0c-0.4,0-0.8,0-1.1,0c-4.4,0.2-8.8,0.3-13.3,0.5c-0.6,0-1.1,0.1-1.7,0.1
		c-2.1,0.2-2.7-1-2.7-2.9c0-3.4-0.1-6.8-0.1-10.2c0-1.9,0-3.9,0-5.8c-0.2-6.1-0.4-12.1-0.6-18.2c-0.1-5.6-0.2-11.2-0.2-16.8
		c-0.1-3-0.2-6-0.2-9C68.1,64.5,68.3,63.3,68.4,62.2z"/>
	<path class="st2" d="M86.8,128c0.4,0,0.8,0,1.1,0c1.5,0,3.1,0,4.6,0c1.2,0,2.4,0,3.5,0c2.2,0.1,4.4,0.2,6.7,0.4l0.3,0.1l0.3-0.1
		c1.5,0,3,0.1,4.5,0.1l0.3,0.1l0.3-0.1c0.7,0,1.5,0,2.2,0c5.4,0.7,6.4-0.2,5.1-4.9c0-5.1,0.1-10.1,0.1-15.2c0.5,0.4,1,0.7,1.4,1.1
		c0.1,4.3-0.2,8.7,0.3,13c0.4,4.2-0.3,6.5-3.9,8.7c-0.7,0.4-1.1,1.2-1.6,1.8c-11.7-0.2-23.3-0.4-35-0.5c-2.8,0-4.6-1-5.3-3.8
		c0.6,0,1.1-0.1,1.7-0.1C78,128.4,82.4,128.2,86.8,128z"/>
	<path class="st7" d="M112.2,133c0.5-0.6,1-1.4,1.6-1.8c3.6-2.2,4.3-4.5,3.9-8.7c-0.4-4.3-0.2-8.7-0.3-13c0.7,0.1,1.4,0.2,2.1,0.3
		c0.2,0.2,0.5,0.4,0.7,0.7c0.2,5.9,0.4,11.8,0.5,17.7c0.1,5-0.4,5.4-5.3,5.2C114.3,133.3,113.2,133.1,112.2,133z"/>
	<path class="st6" d="M69.1,51.2c-0.3,0-0.6,0.1-1,0.1c-0.2,0-0.4,0-0.7,0c-0.2-9.9-0.4-19.7-0.6-29.6c0-2.3,0.1-4.6,0.1-6.9
		c1.4,0,2.9,0,4.3,0c-0.8,2.1-1.5,4.1-0.2,6.4c0.3,0.5-0.3,1.5-0.5,2.3c-2.1,0.5-1.7,1.6-0.7,2.9c0,1,0,1.9,0,2.9
		c-0.2,1.1-0.7,2.3-0.7,3.4c-0.1,4.5,0,8.9,0,13.4C69.1,47.8,69.1,49.5,69.1,51.2z"/>
	<path class="st8" d="M69.1,109.7c0,1.9,0,3.9,0,5.8C69.1,113.6,69.1,111.6,69.1,109.7z"/>
	<path class="st2" d="M91.9,98.4c0-0.6,0-1.2,0-1.8c-0.1-3.2-0.1-6.3-0.2-9.5c0.1-1,0.2-2.1,0.4-3.5c2.1,0,4.1,0,6.1,0
		c3.2-0.1,6.4-0.2,9.6-0.3c0.5,0,1,0,1.5,0c1.1,0,2.2,0.1,3.3,0.1c1.8,0.1,2.6-0.8,2.6-2.6c-0.1-6.4-0.2-12.8-0.3-19.2
		c0.4,0.3,0.8,0.6,1.3,1c-0.1,1.3-0.2,2.7-0.1,4c0.1,2.6,0.6,5.3,0.4,7.8c-0.4,4.4-1.3,8.7-1.9,13c-6,0-12,0-18.3,0
		c0,3.5,0,6.3,0,9.2c0.1,0.7,0.1,1.5,0.2,2.2c0.1,2.2,0.2,4.4,0.2,6.6c-1.4-0.7-4,0.9-4.1-2.2C92.2,101.5,92,99.9,91.9,98.4z"/>
	<path class="st3" d="M118.5,87.6c-1.4-0.1-2.8-0.2-4.2-0.2c0.7-4.3,1.5-8.7,1.9-13c0.2-2.6-0.3-5.2-0.4-7.8c0-1.3,0.1-2.6,0.1-4
		c0.6,0.3,1.2,0.6,1.9,0.9c0.2,0.2,0.4,0.5,0.6,0.7c-0.1,0.1-0.2,0.2-0.1,0.3c0.1,1.9,0.1,3.8,0.2,5.8c0.1,4.3,0.2,8.7,0.3,13
		C118.8,84.6,118.6,86.1,118.5,87.6z"/>
	<path class="st6" d="M114.8,61.5c0.1,6.4,0.2,12.8,0.3,19.2c0,1.8-0.7,2.7-2.6,2.6c-1.1,0-2.2-0.1-3.3-0.1c0-3-0.1-6.1,0-9.1
		c0-2.3-0.9-3.6-3.3-4c-2.4-0.4-4.7-2-7.4-0.8c-0.6,0.3-1.6-0.5-3.1-1c3.7-3,6.9-0.5,10-1c3.2-0.5,5.5,1.5,6.7,5.1
		c0.5-0.4,0.9-0.7,1.4-1.1c-0.2-3.4-0.3-6.9-0.5-10.3c-0.3-0.1-0.6-0.3-0.9-0.4c-1.4,2.8-3.2,2.7-5.9,2.4c-4.4-0.5-8.8,0.1-13.9,0.2
		c0-0.6,0-2,0-3.4c0.7,0,1.4-0.1,2.2-0.1c5.5,0,11.1,0.1,16.6,0.1C112.7,59.9,114.3,59.5,114.8,61.5z"/>
	<path class="st5" d="M69.1,46.1c0-4.5-0.1-8.9,0-13.4c0-1.1,0.5-2.3,0.7-3.4c0.4,0.4,1.2,1,1.2,1.2c-1.5,4.4,1,8.7,0.4,13.1
		C71.1,45.1,71,46.2,69.1,46.1z"/>
	<path class="st5" d="M69.8,26.3c-1-1.3-1.3-2.4,0.7-2.9C70.3,24.4,70.1,25.4,69.8,26.3z"/>
	<path class="st6" d="M72,14.8c1,0,1.9,0,2.9,0C74,14.8,73,14.8,72,14.8z"/>
	<path class="st6" d="M107.8,83.3c-3.2,0.1-6.4,0.2-9.6,0.3c1.6-1.2,3.1-2.1,3.3-4.6c0.2-2.1,1.3-4.5,4.9-4.9
		C106.9,77.1,107.4,80.2,107.8,83.3z"/>
	<path class="st6" d="M88.9,68.5c-1,1.2-1.7,2.9-2.5,2.9c-2.3,0.1-1.9-1.9-1.9-3.4c0-1.3-0.5-3.4,1.6-3.2
		C87.1,64.9,87.8,66.9,88.9,68.5z"/>
	<path class="st9" d="M115.9,123.6c1.3,4.7,0.3,5.6-5.1,4.9c0.9-0.9,1.8-1.7,2.7-2.6C114.2,125.2,115,124.4,115.9,123.6z"/>
	<path class="st6" d="M91.7,87c0.1,3.2,0.1,6.3,0.2,9.5c-0.1,0-0.3,0-0.3-0.1C89.7,94.6,89.8,88.9,91.7,87z"/>
	<path class="st6" d="M85.2,100.8c-0.9-1-2-2-0.4-3.4c0.4-0.4,1.4-0.1,2.1-0.1c-0.1,1.2-0.3,2.4-0.4,3.6
		C86,100.9,85.6,100.8,85.2,100.8z"/>
	<path class="st6" d="M86.1,90.9c0.1,1.3,0.2,2.6,0.3,3.9c-0.5,0-1,0.1-1.4,0.1c-0.1-1.3-0.3-2.6-0.4-3.8
		C85.1,91.1,85.6,91,86.1,90.9z"/>
	<path class="st6" d="M91.9,98.4c0.2,1.6,0.3,3.1,0.5,4.7c-0.3-0.5-0.9-1-0.9-1.5C91.4,100.5,91.7,99.5,91.9,98.4z"/>
	<path class="st9" d="M108.6,128.5l-0.3,0.1l-0.3-0.1C108.1,128.5,108.3,128.5,108.6,128.5z"/>
	<path class="st9" d="M103.4,128.4l-0.3,0.1l-0.3-0.1C103,128.4,103.2,128.4,103.4,128.4z"/>
	<path class="st6" d="M68.4,60c0-0.2,0-0.5,0-0.7C68.4,59.5,68.4,59.7,68.4,60z"/>
	<path class="st9" d="M86.8,128c-4.4,0.2-8.8,0.3-13.3,0.5C78,128.4,82.4,128.2,86.8,128z"/>
	<path class="st9" d="M92.6,128c-1.5,0-3.1,0-4.6,0C89.5,128,91.1,128,92.6,128z"/>
</g>
<g>
	<path class="st1" d="M48.3,15.5c0,0.2,0,0.4,0,0.6c-0.2,1.9-0.5,3.8-0.5,5.7c0.1,3.6,0.2,7.3,0.5,10.9c0.2,2.8-0.7,4-3.6,3.9
		c-5.2-0.2-10.4,0-15.6,0c-1.3,0-2.5,0.1-4,0.2c0,2.1,0,3.8,0,5.5c-0.5,0.7-1.1,1.3-1.6,2c-0.4-1.6-0.1-3,0-4.4
		c0-0.6-0.4-1.4-0.9-1.7c-0.3-0.2-1.4,0-1.6,0.3c-1.9,3.1-3.1,1.4-4.5-0.5c-0.4-0.6-1.2-0.9-2.3-1.7c-0.4,2.4-0.8,4.4-1.2,6.3
		c-0.2,0.8-0.5,1.5-0.7,2.2c-0.7-0.3-1.5-0.6-2.1-1c-0.5-0.3-1-0.9-1.9-1.7c-0.3,3.8-0.5,7-0.8,10.4c-1.7-0.7-2.7-1.1-3.7-1.5
		c0-1.7,0-3.4,0-5.1c1.8,0.1,2-0.9,2.2-2.5c0.7-4.4-1.9-8.7-0.4-13.1c0.1-0.2-0.8-0.8-1.2-1.2c0-1,0-1.9,0-2.9
		c0.2-1,0.5-1.9,0.7-2.9c0.2-0.8,0.8-1.8,0.5-2.3c-1.3-2.2-0.5-4.3,0.2-6.4l0.4-0.1l0.4,0.1c1,0,1.9,0,2.9,0
		c3.2-0.3,6.3-0.6,9.5-0.9c0.7,0,1.5,0,2.2,0c8.8,0,17.5,0,26.3,0.1c0,0.2,0.1,0.5,0.1,0.7C47.9,15,48.1,15.2,48.3,15.5z"/>
	<path class="st2" d="M25,42.4c0-1.7,0-3.4,0-5.5c1.5-0.1,2.7-0.2,4-0.2c5.2,0,10.4-0.2,15.6,0c3,0.1,3.9-1.1,3.6-3.9
		c-0.3-3.6-0.5-7.2-0.5-10.9c0-1.9,0.3-3.8,0.5-5.7c0.5,0.5,1,0.9,1.5,1.4C49.5,25,49.2,32.6,49,40.1c-1.2,0.1-2.4,0.3-3.6,0.4
		c-1,0-1.9,0-2.9,0c-0.2,0-0.5,0-0.7,0c-0.7,0-1.5,0.1-2.2,0.1c-3,0.1-6,0.1-9.1,0.2c-2.2,0-2,1.6-2,3.1c0.3,5.3,0.5,10.6,0.8,15.9
		c-0.7,0-1.4,0.1-2.2,0.1c-0.2-1.3-0.5-2.5-0.7-3.8C26,51.6,25.5,47,25,42.4z"/>
	<path class="st3" d="M49,40.1c0.3-7.5,0.5-15.1,0.8-22.6c0.5,0.3,1,0.5,1.5,0.8c0.1,0.3,0.1,0.5,0.2,0.8c0.1,7,0.3,14,0.4,20.9
		C50.9,40,49.9,40.1,49,40.1z"/>
	<path class="st4" d="M48.3,15.5c-0.2-0.3-0.4-0.6-0.6-0.9C47.9,15,48.1,15.2,48.3,15.5z"/>
	<path class="st5" d="M25,42.4c0.5,4.6,0.9,9.2,1.4,13.8c0.1,1.3,0.4,2.5,0.7,3.8c0,1.4,0,2.7,0,3.4c5.1-0.1,9.5-0.7,13.9-0.2
		c2.6,0.3,4.5,0.3,5.9-2.4c0.3,0.1,0.6,0.3,0.9,0.4c0.2,3.4,0.3,6.9,0.5,10.3c-0.5,0.4-0.9,0.7-1.4,1.1c-1.2-3.6-3.5-5.6-6.7-5.1
		c-3,0.5-6.3-2-10,1c1.5,0.5,2.5,1.2,3.1,1c2.7-1.2,4.9,0.4,7.4,0.8c2.4,0.4,3.3,1.7,3.3,4c0,3,0,6.1,0,9.1c-0.5,0-1,0-1.5,0
		c-0.5-3.1-0.9-6.2-1.4-9.3c-3.7,0.4-4.8,2.8-4.9,4.9c-0.2,2.5-1.7,3.5-3.3,4.6c-2,0-4,0-6.1,0c-0.2,1.4-0.3,2.4-0.4,3.5
		c-2,1.9-2.1,7.6-0.2,9.4c0.1,0.1,0.2,0.1,0.3,0.1c0,0.6,0,1.2,0,1.8c-0.1,1.1-0.4,2.1-0.4,3.2c0,0.5,0.6,1,0.9,1.5
		c0.1,3.1,1.7,23.5,0.6,23.5c-6-0.1-11.9-0.2-17.9,0c-2.8,0.1-4.1-0.9-3.8-3.8c0.3-4.7,0.7-9.4,0.7-14.1c0-6.8-0.5-13.7-0.6-20.5
		c0-2,0.5-4.1,0.5-6.1c0-3.4,0-6.9-0.3-10.3c-0.2-3-0.8-5.9-1.3-8.8c-0.1-0.4-1.2-0.5-1.9-0.7c-0.2-0.8-0.4-1.5-0.6-2.3
		c0.2,0,0.4,0.1,0.6,0.1c0-0.2,0-0.5,0-0.7c-0.1-2.7-0.1-5.3-0.2-8c0.3,0,0.6-0.1,1-0.1c1,0.4,2,0.8,3.7,1.5
		c0.3-3.4,0.5-6.6,0.8-10.4c1,0.9,1.4,1.4,1.9,1.7c0.7,0.4,1.4,0.7,2.1,1c0.3-0.7,0.6-1.4,0.7-2.2c0.4-1.9,0.7-3.9,1.2-6.3
		c1,0.7,1.8,1.1,2.3,1.7c1.4,1.9,2.6,3.6,4.5,0.5c0.2-0.3,1.3-0.5,1.6-0.3c0.5,0.4,0.9,1.1,0.9,1.7c-0.1,1.4-0.4,2.7,0,4.4
		C24,43.7,24.5,43,25,42.4z M23.5,68.5c-1.1-1.6-1.8-3.6-2.8-3.7c-2.1-0.3-1.6,1.9-1.6,3.2c0,1.5-0.4,3.5,1.9,3.4
		C21.8,71.4,22.5,69.8,23.5,68.5z M19.8,100.8c0.4,0,0.9,0.1,1.3,0.1c0.1-1.2,0.3-2.4,0.4-3.6c-0.7,0-1.6-0.2-2.1,0.1
		C17.7,98.7,18.8,99.8,19.8,100.8z M20.8,90.9c-0.5,0.1-1.1,0.1-1.6,0.2c0.1,1.3,0.3,2.6,0.4,3.8c0.5,0,1-0.1,1.4-0.1
		C20.9,93.5,20.8,92.2,20.8,90.9z"/>
	<path class="st6" d="M3,62.2c0.6,0.2,1.8,0.4,1.9,0.7c0.6,2.9,1.1,5.9,1.3,8.8c0.3,3.4,0.3,6.8,0.3,10.3c0,2-0.6,4.1-0.5,6.1
		c0.1,6.8,0.6,13.7,0.6,20.5c0,4.7-0.4,9.4-0.7,14.1c-0.2,2.9,1,3.8,3.8,3.8c6-0.1,11.9-0.1,17.9,0c1.1,0,2.1,0.9,3.1,1.5
		c-1.2,0-2.4,0-3.5,0c-1.5,0-3.1,0-4.6,0c-0.4,0-0.8,0-1.1,0c-4.4,0.2-8.8,0.3-13.3,0.5c-0.6,0-1.1,0.1-1.7,0.1
		c-2.1,0.2-2.7-1-2.7-2.9c0-3.4-0.1-6.8-0.1-10.2c0-1.9,0-3.9,0-5.8c-0.2-6.1-0.4-12.1-0.6-18.2C3,85.8,3,80.2,2.9,74.6
		c-0.1-3-0.2-6-0.2-9C2.7,64.5,2.9,63.3,3,62.2z"/>
	<path class="st2" d="M21.4,128l1.1,0c1.3,0,4.3-1.2,4.5-1.3c0,0,0.1,0,0.1-0.1c0.8-0.7-0.2-18.6-0.2-23.6l4.1,2.2
		c0.1,4.3-2.6,13-2.2,17.3c0.4,4.2-0.3,6.5-3.9,8.7c-0.7,0.4-1.1,1.2-1.6,1.8c-11.7-0.2,0.1-0.4-11.6-0.5c-2.8,0-4.6-1-5.3-3.8
		c0.1,0,0.2,0,0.3,0C10.8,128.5,17.4,128.2,21.4,128z"/>
	<path class="st7" d="M23.4,133c0.5-0.6,1-1.4,1.6-1.8c3.6-2.2,4.3-4.5,3.9-8.7c-0.4-4.3,2.2-17.3,2.2-17.3s0.1,4.9,0.4,5.2
		c0.2,5.9,0.4,11.8,0.5,17.7c0.1,5-0.4,5.4-5.3,5.2C25.5,133.3,24.5,133.1,23.4,133z"/>
	<path class="st6" d="M3.7,51.2c-0.3,0-0.6,0.1-1,0.1c-0.2,0-0.4,0-0.7,0c-0.2-9.9-0.4-19.7-0.6-29.6c0-2.3,0.1-4.6,0.1-6.9
		c1.4,0,2.9,0,4.3,0c-0.8,2.1-1.5,4.1-0.2,6.4c0.3,0.5-0.3,1.5-0.5,2.3c-2.1,0.5-1.7,1.6-0.7,2.9c0,1,0,1.9,0,2.9
		c-0.2,1.1-0.7,2.3-0.7,3.4c-0.1,4.5,0,8.9,0,13.4C3.7,47.8,3.7,49.5,3.7,51.2z"/>
	<path class="st8" d="M3.7,109.7c0,1.9,0,3.9,0,5.8C3.7,113.6,3.7,111.6,3.7,109.7z"/>
	<path class="st2" d="M26.5,98.4c0-0.6,0-1.2,0-1.8c-0.1-3.2-0.1-6.3-0.2-9.5c0.1-1,0.2-2.1,0.4-3.5c2.1,0,4.1,0,6.1,0
		c3.2-0.1,6.4-0.2,9.6-0.3c0.5,0,1,0,1.5,0c1.1,0,2.2,0.1,3.3,0.1c1.8,0.1,2.6-0.8,2.6-2.6c-0.1-6.4-0.2-12.8-0.3-19.2
		c0.4,0.3,0.8,0.6,1.3,1c-0.1,1.3-0.2,2.7-0.1,4c0.1,2.6,0.6,5.3,0.4,7.8c-0.4,4.4-1.3,8.7-1.9,13c-6,0-12,0-18.3,0
		c0,3.5,0,6.3,0,9.2c0.1,0.7,0.1,1.5,0.2,2.2c0.1,2.2,0.2,4.4,0.2,6.6c-1.4-0.7-4,0.9-4.1-2.2C26.8,101.5,26.6,99.9,26.5,98.4z"/>
	<path class="st3" d="M53.1,87.6c-1.4-0.1-2.8-0.2-4.2-0.2c0.7-4.3,1.5-8.7,1.9-13c0.2-2.6-0.3-5.2-0.4-7.8c0-1.3,0.1-2.6,0.1-4
		c0.6,0.3,1.2,0.6,1.9,0.9c0.2,0.2,0.4,0.5,0.6,0.7c-0.1,0.1-0.2,0.2-0.1,0.3c0.1,1.9,0.1,3.8,0.2,5.8c0.1,4.3,0.2,8.7,0.3,13
		C53.4,84.6,53.2,86.1,53.1,87.6z"/>
	<path class="st6" d="M49.4,61.5c0.1,6.4,0.2,12.8,0.3,19.2c0,1.8-0.7,2.7-2.6,2.6c-1.1,0-2.2-0.1-3.3-0.1c0-3-0.1-6.1,0-9.1
		c0-2.3-0.9-3.6-3.3-4c-2.4-0.4-4.7-2-7.4-0.8c-0.6,0.3-1.6-0.5-3.1-1c3.7-3,6.9-0.5,10-1c3.2-0.5,5.5,1.5,6.7,5.1
		c0.5-0.4,0.9-0.7,1.4-1.1c-0.2-3.4-0.3-6.9-0.5-10.3c-0.3-0.1-0.6-0.3-0.9-0.4c-1.4,2.8-3.2,2.7-5.9,2.4c-4.4-0.5-8.8,0.1-13.9,0.2
		c0-0.6,0-2,0-3.4c0.7,0,1.4-0.1,2.2-0.1c5.5,0,11.1,0.1,16.6,0.1C47.3,59.9,48.9,59.5,49.4,61.5z"/>
	<path class="st5" d="M3.7,46.1c0-4.5-0.1-8.9,0-13.4c0-1.1,0.5-2.3,0.7-3.4c0.4,0.4,1.2,1,1.2,1.2c-1.5,4.4,1,8.7,0.4,13.1
		C5.7,45.1,5.6,46.2,3.7,46.1z"/>
	<path class="st5" d="M4.4,26.3c-1-1.3-1.3-2.4,0.7-2.9C4.9,24.4,4.7,25.4,4.4,26.3z"/>
	<path class="st6" d="M6.6,14.8c1,0,1.9,0,2.9,0C8.6,14.8,7.6,14.8,6.6,14.8z"/>
	<path class="st6" d="M42.4,83.3c-3.2,0.1-6.4,0.2-9.6,0.3c1.6-1.2,3.1-2.1,3.3-4.6c0.2-2.1,1.3-4.5,4.9-4.9
		C41.5,77.1,42,80.2,42.4,83.3z"/>
	<path class="st6" d="M23.5,68.5c-1,1.2-1.7,2.9-2.5,2.9c-2.3,0.1-1.9-1.9-1.9-3.4c0-1.3-0.5-3.4,1.6-3.2
		C21.7,64.9,22.4,66.9,23.5,68.5z"/>
	<path class="st6" d="M26.3,87c0.1,3.2,0.1,6.3,0.2,9.5c-0.1,0-0.3,0-0.3-0.1C24.3,94.6,24.4,88.9,26.3,87z"/>
	<path class="st6" d="M19.8,100.8c-0.9-1-2-2-0.4-3.4c0.4-0.4,1.4-0.1,2.1-0.1c-0.1,1.2-0.3,2.4-0.4,3.6
		C20.6,100.9,20.2,100.8,19.8,100.8z"/>
	<path class="st6" d="M20.8,90.9c0.1,1.3,0.2,2.6,0.3,3.9c-0.5,0-1,0.1-1.4,0.1c-0.1-1.3-0.3-2.6-0.4-3.8
		C19.7,91.1,20.2,91,20.8,90.9z"/>
	<path class="st6" d="M26.5,98.4c0.2,1.6,0.3,3.1,0.5,4.7c-0.3-0.5-0.9-1-0.9-1.5C26.1,100.5,26.3,99.5,26.5,98.4z"/>
	<path class="st9" d="M19.8,128.5l-0.3,0.1l-0.3-0.1C19.3,128.5,19.5,128.5,19.8,128.5z"/>
	<path class="st9" d="M38,128.4l-0.3,0.1l-0.3-0.1C37.6,128.4,37.8,128.4,38,128.4z"/>
	<path class="st6" d="M3,60c0-0.2,0-0.5,0-0.7C3,59.5,3,59.7,3,60z"/>
	<path class="st9" d="M21.4,128c-4.4,0.2-8.8,0.3-13.3,0.5C12.6,128.4,17,128.2,21.4,128z"/>
	<path class="st9" d="M27.2,128c-1.5,0-3.1,0-4.6,0C24.1,128,25.7,128,27.2,128z"/>
</g>
<g>
	<path class="st1" d="M49.3,161.8c0,0.2,0,0.4,0,0.6c-0.2,1.9-0.5,3.8-0.5,5.7c0.1,3.6,0.2,7.3,0.5,10.9c0.2,2.8-0.7,4-3.6,3.9
		c-5.2-0.2-10.4,0-15.6,0c-1.3,0-2.5,0.1-4,0.2c0,2.1,0,3.8,0,5.5c-0.5,0.7-1.1,1.3-1.6,2c-0.4-1.6-0.1-3,0-4.4
		c0-0.6-0.4-1.4-0.9-1.7c-0.3-0.2-1.4,0-1.6,0.3c-1.9,3.1-3.1,1.4-4.5-0.5c-0.4-0.6-1.2-0.9-2.3-1.7c-0.4,2.4-0.8,4.4-1.2,6.3
		c-0.2,0.8-0.5,1.5-0.7,2.2c-0.7-0.3-1.5-0.6-2.1-1c-0.5-0.3-1-0.9-1.9-1.7c-0.3,3.8-0.5,7-0.8,10.4c-1.7-0.7-2.7-1.1-3.7-1.5
		c0-1.7,0-3.4,0-5.1c1.8,0.1,2-0.9,2.2-2.5c0.7-4.4-1.9-8.7-0.4-13.1c0.1-0.2-0.8-0.8-1.2-1.2c0-1,0-1.9,0-2.9
		c0.2-1,0.5-1.9,0.7-2.9c0.2-0.8,0.8-1.8,0.5-2.3c-1.3-2.2-0.5-4.3,0.2-6.4l0.4-0.1l0.4,0.1c1,0,1.9,0,2.9,0
		c3.2-0.3,6.3-0.6,9.5-0.9c0.7,0,1.5,0,2.2,0c8.8,0,17.5,0,26.3,0.1c0,0.2,0.1,0.5,0.1,0.7C48.9,161.2,49.1,161.5,49.3,161.8z"/>
	<path class="st2" d="M26,188.6c0-1.7,0-3.4,0-5.5c1.5-0.1,2.7-0.2,4-0.2c5.2,0,10.4-0.2,15.6,0c3,0.1,3.9-1.1,3.6-3.9
		c-0.3-3.6-0.5-7.2-0.5-10.9c0-1.9,0.3-3.8,0.5-5.7c0.5,0.5,1,0.9,1.5,1.4c-0.3,7.5-0.5,15.1-0.8,22.6c-1.2,0.1-2.4,0.3-3.6,0.4
		c-1,0-1.9,0-2.9,0c-0.2,0-0.5,0-0.7,0c-0.7,0-1.5,0.1-2.2,0.1c-3,0.1-6,0.1-9.1,0.2c-2.2,0-2,1.6-2,3.1c0.3,5.3,0.5,10.6,0.8,15.9
		c-0.7,0-1.4,0.1-2.2,0.1c-0.2-1.3-0.5-2.5-0.7-3.8C27,197.8,26.5,193.2,26,188.6z"/>
	<path class="st3" d="M50,186.3c0.3-7.5,0.5-15.1,0.8-22.6c0.5,0.3,1,0.5,1.5,0.8c0.1,0.3,0.1,0.5,0.2,0.8c0.1,7,0.3,14,0.4,20.9
		C51.9,186.3,50.9,186.3,50,186.3z"/>
	<path class="st4" d="M49.3,161.8c-0.2-0.3-0.4-0.6-0.6-0.9C48.9,161.2,49.1,161.5,49.3,161.8z"/>
	<path class="st5" d="M26,188.6c0.5,4.6,0.9,9.2,1.4,13.8c0.1,1.3,0.4,2.5,0.7,3.8c0,1.4,0,2.7,0,3.4c5.1-0.1,9.5-0.7,13.9-0.2
		c2.6,0.3,4.5,0.3,5.9-2.4c0.3,0.1,0.6,0.3,0.9,0.4c0.2,3.4,0.3,6.9,0.5,10.3c-0.5,0.4-0.9,0.7-1.4,1.1c-1.2-3.6-3.5-5.6-6.7-5.1
		c-3,0.5-6.3-2-10,1c1.5,0.5,2.5,1.2,3.1,1c2.7-1.2,4.9,0.4,7.4,0.8c2.4,0.4,3.3,1.7,3.3,4c0,3,0,6.1,0,9.1c-0.5,0-1,0-1.5,0
		c-0.5-3.1-0.9-6.2-1.4-9.3c-3.7,0.4-4.8,2.8-4.9,4.9c-0.2,2.5-1.7,3.5-3.3,4.6c-2,0-4,0-6.1,0c-0.2,1.4-0.3,2.4-0.4,3.5
		c-2,1.9-2.1,7.6-0.2,9.4c0.1,0.1,0.2,0.1,0.3,0.1c0,0.6,0,1.2,0,1.8c-0.1,1.1-0.4,2.1-0.4,3.2c0,0.5,0.6,1,0.9,1.5
		c0.1,3.1,1.7,23.5,0.6,23.5c-6-0.1-11.9-0.2-17.9,0c-2.8,0.1-4.1-0.9-3.8-3.8c0.3-4.7,0.7-9.4,0.7-14.1c0-6.8-0.5-13.7-0.6-20.5
		c0-2,0.5-4.1,0.5-6.1c0-3.4,0-6.9-0.3-10.3c-0.2-3-0.8-5.9-1.3-8.8c-0.1-0.4-1.2-0.5-1.9-0.7c-0.2-0.8-0.4-1.5-0.6-2.3
		c0.2,0,0.4,0.1,0.6,0.1c0-0.2,0-0.5,0-0.7c-0.1-2.7-0.1-5.3-0.2-8c0.3,0,0.6-0.1,1-0.1c1,0.4,2,0.8,3.7,1.5
		c0.3-3.4,0.5-6.6,0.8-10.4c1,0.9,1.4,1.4,1.9,1.7c0.7,0.4,1.4,0.7,2.1,1c0.3-0.7,0.6-1.4,0.7-2.2c0.4-1.9,0.7-3.9,1.2-6.3
		c1,0.7,1.8,1.1,2.3,1.7c1.4,1.9,2.6,3.6,4.5,0.5c0.2-0.3,1.3-0.5,1.6-0.3c0.5,0.4,0.9,1.1,0.9,1.7c-0.1,1.4-0.4,2.7,0,4.4
		C25,189.9,25.5,189.3,26,188.6z M24.5,214.8c-1.1-1.6-1.8-3.6-2.8-3.7c-2.1-0.3-1.6,1.9-1.6,3.2c0,1.5-0.4,3.5,1.9,3.4
		C22.8,217.6,23.5,216,24.5,214.8z M20.8,247c0.4,0,0.9,0.1,1.3,0.1c0.1-1.2,0.3-2.4,0.4-3.6c-0.7,0-1.6-0.2-2.1,0.1
		C18.7,245,19.8,246,20.8,247z M21.8,237.2c-0.5,0.1-1.1,0.1-1.6,0.2c0.1,1.3,0.3,2.6,0.4,3.8c0.5,0,1-0.1,1.4-0.1
		C21.9,239.8,21.8,238.5,21.8,237.2z"/>
	<path class="st6" d="M4,208.4c0.6,0.2,1.8,0.4,1.9,0.7c0.6,2.9,1.1,5.9,1.3,8.8c0.3,3.4,0.3,6.8,0.3,10.3c0,2-0.6,4.1-0.5,6.1
		c0.1,6.8,0.6,13.7,0.6,20.5c0,4.7-0.4,9.4-0.7,14.1c-0.2,2.9,1,3.8,3.8,3.8c6-0.1,11.9-0.1,17.9,0c1.1,0,2.1,0.9,3.1,1.5
		c-1.2,0-2.4,0-3.5,0c-1.5,0-3.1,0-4.6,0c-0.4,0-0.8,0-1.1,0c-4.4,0.2-8.8,0.3-13.3,0.5c-0.6,0-1.1,0.1-1.7,0.1
		c-2.1,0.2-2.7-1-2.7-2.9c0-3.4-0.1-6.8-0.1-10.2c0-1.9,0-3.9,0-5.8c-0.2-6.1-0.4-12.1-0.6-18.2C4,232.1,4,226.5,3.9,220.9
		c-0.1-3-0.2-6-0.2-9C3.7,210.7,3.9,209.6,4,208.4z"/>
	<path class="st2" d="M22.4,274.3l1.1,0c1.3,0,4.3-1.2,4.5-1.3c0,0,0.1,0,0.1-0.1c0.8-0.7-0.2-18.6-0.2-23.6l4.1,2.2
		c0.1,4.3-2.6,13-2.2,17.3c0.4,4.2-0.3,6.5-3.9,8.7c-0.7,0.4-1.1,1.2-1.6,1.8c-11.7-0.2,0.1-0.4-11.6-0.5c-2.8,0-4.6-1-5.3-3.8
		c0.1,0,0.2,0,0.3,0C11.8,274.7,18.4,274.4,22.4,274.3z"/>
	<path class="st7" d="M24.4,279.2c0.5-0.6,1-1.4,1.6-1.8c3.6-2.2,4.3-4.5,3.9-8.7c-0.4-4.3,2.2-17.3,2.2-17.3s0.1,4.9,0.4,5.2
		c0.2,5.9,0.4,11.8,0.5,17.7c0.1,5-0.4,5.4-5.3,5.2C26.5,279.5,25.5,279.3,24.4,279.2z"/>
	<path class="st6" d="M4.7,197.4c-0.3,0-0.6,0.1-1,0.1c-0.2,0-0.4,0-0.7,0c-0.2-9.9-0.4-19.7-0.6-29.6c0-2.3,0.1-4.6,0.1-6.9
		c1.4,0,2.9,0,4.3,0c-0.8,2.1-1.5,4.1-0.2,6.4c0.3,0.5-0.3,1.5-0.5,2.3c-2.1,0.5-1.7,1.6-0.7,2.9c0,1,0,1.9,0,2.9
		c-0.2,1.1-0.7,2.3-0.7,3.4c-0.1,4.5,0,8.9,0,13.4C4.7,194,4.7,195.7,4.7,197.4z"/>
	<path class="st8" d="M4.7,255.9c0,1.9,0,3.9,0,5.8C4.7,259.8,4.7,257.9,4.7,255.9z"/>
	<path class="st2" d="M27.5,244.6c0-0.6,0-1.2,0-1.8c-0.1-3.2-0.1-6.3-0.2-9.5c0.1-1,0.2-2.1,0.4-3.5c2.1,0,4.1,0,6.1,0
		c3.2-0.1,6.4-0.2,9.6-0.3c0.5,0,1,0,1.5,0c1.1,0,2.2,0.1,3.3,0.1c1.8,0.1,2.6-0.8,2.6-2.6c-0.1-6.4-0.2-12.8-0.3-19.2
		c0.4,0.3,0.8,0.6,1.3,1c-0.1,1.3-0.2,2.7-0.1,4c0.1,2.6,0.6,5.3,0.4,7.8c-0.4,4.4-1.3,8.7-1.9,13c-6,0-12,0-18.3,0
		c0,3.5,0,6.3,0,9.2c0.1,0.7,0.1,1.5,0.2,2.2c0.1,2.2,0.2,4.4,0.2,6.6c-1.4-0.7-4,0.9-4.1-2.2C27.8,247.7,27.6,246.2,27.5,244.6z"/>
	<path class="st3" d="M54.1,233.8c-1.4-0.1-2.8-0.2-4.2-0.2c0.7-4.3,1.5-8.7,1.9-13c0.2-2.6-0.3-5.2-0.4-7.8c0-1.3,0.1-2.6,0.1-4
		c0.6,0.3,1.2,0.6,1.9,0.9c0.2,0.2,0.4,0.5,0.6,0.7c-0.1,0.1-0.2,0.2-0.1,0.3c0.1,1.9,0.1,3.8,0.2,5.8c0.1,4.3,0.2,8.7,0.3,13
		C54.4,230.9,54.2,232.3,54.1,233.8z"/>
	<path class="st6" d="M50.4,207.8c0.1,6.4,0.2,12.8,0.3,19.2c0,1.8-0.7,2.7-2.6,2.6c-1.1,0-2.2-0.1-3.3-0.1c0-3-0.1-6.1,0-9.1
		c0-2.3-0.9-3.6-3.3-4c-2.4-0.4-4.7-2-7.4-0.8c-0.6,0.3-1.6-0.5-3.1-1c3.7-3,6.9-0.5,10-1c3.2-0.5,5.5,1.5,6.7,5.1
		c0.5-0.4,0.9-0.7,1.4-1.1c-0.2-3.4-0.3-6.9-0.5-10.3c-0.3-0.1-0.6-0.3-0.9-0.4c-1.4,2.8-3.2,2.7-5.9,2.4c-4.4-0.5-8.8,0.1-13.9,0.2
		c0-0.6,0-2,0-3.4c0.7,0,1.4-0.1,2.2-0.1c5.5,0,11.1,0.1,16.6,0.1C48.3,206.2,49.9,205.7,50.4,207.8z"/>
	<path class="st5" d="M4.7,192.3c0-4.5-0.1-8.9,0-13.4c0-1.1,0.5-2.3,0.7-3.4c0.4,0.4,1.2,1,1.2,1.2c-1.5,4.4,1,8.7,0.4,13.1
		C6.7,191.4,6.6,192.5,4.7,192.3z"/>
	<path class="st5" d="M5.4,172.6c-1-1.3-1.3-2.4,0.7-2.9C5.9,170.6,5.7,171.6,5.4,172.6z"/>
	<path class="st6" d="M7.6,161c1,0,1.9,0,2.9,0C9.6,161,8.6,161,7.6,161z"/>
	<path class="st6" d="M43.4,229.5c-3.2,0.1-6.4,0.2-9.6,0.3c1.6-1.2,3.1-2.1,3.3-4.6c0.2-2.1,1.3-4.5,4.9-4.9
		C42.5,223.3,43,226.4,43.4,229.5z"/>
	<path class="st6" d="M24.5,214.8c-1,1.2-1.7,2.9-2.5,2.9c-2.3,0.1-1.9-1.9-1.9-3.4c0-1.3-0.5-3.4,1.6-3.2
		C22.7,211.1,23.4,213.2,24.5,214.8z"/>
	<path class="st6" d="M27.3,233.3c0.1,3.2,0.1,6.3,0.2,9.5c-0.1,0-0.3,0-0.3-0.1C25.3,240.8,25.4,235.2,27.3,233.3z"/>
	<path class="st6" d="M20.8,247c-0.9-1-2-2-0.4-3.4c0.4-0.4,1.4-0.1,2.1-0.1c-0.1,1.2-0.3,2.4-0.4,3.6
		C21.6,247.1,21.2,247.1,20.8,247z"/>
	<path class="st6" d="M21.8,237.2c0.1,1.3,0.2,2.6,0.3,3.9c-0.5,0-1,0.1-1.4,0.1c-0.1-1.3-0.3-2.6-0.4-3.8
		C20.7,237.3,21.2,237.2,21.8,237.2z"/>
	<path class="st6" d="M27.5,244.6c0.2,1.6,0.3,3.1,0.5,4.7c-0.3-0.5-0.9-1-0.9-1.5C27.1,246.8,27.3,245.7,27.5,244.6z"/>
	<path class="st9" d="M20.8,274.7l-0.3,0.1l-0.3-0.1C20.3,274.7,20.5,274.7,20.8,274.7z"/>
	<path class="st9" d="M39,274.6l-0.3,0.1l-0.3-0.1C38.6,274.6,38.8,274.6,39,274.6z"/>
	<path class="st6" d="M4,206.2c0-0.2,0-0.5,0-0.7C4,205.7,4,206,4,206.2z"/>
	<path class="st9" d="M22.4,274.3c-4.4,0.2-8.8,0.3-13.3,0.5C13.6,274.6,18,274.4,22.4,274.3z"/>
	<path class="st9" d="M28.2,274.2c-1.5,0-3.1,0-4.6,0C25.1,274.3,26.7,274.2,28.2,274.2z"/>
</g>
<g>
	<path class="st10" d="M274.7,15.5c0,0.2,0,0.4,0,0.6c0.2,1.9,0.5,3.8,0.5,5.7c-0.1,3.6-0.2,7.3-0.5,10.9c-0.2,2.8,0.7,4,3.6,3.9
		c5.2-0.2,10.4,0,15.6,0c1.3,0,2.5,0.1,4,0.2c0,2.1,0,3.8,0,5.5c0.5,0.7,1.1,1.3,1.6,2c0.4-1.6,0.1-3,0-4.4c0-0.6,0.4-1.4,0.9-1.7
		c0.3-0.2,1.4,0,1.6,0.3c1.9,3.1,3.1,1.4,4.5-0.5c0.4-0.6,1.2-0.9,2.3-1.7c0.4,2.4,0.8,4.4,1.2,6.3c0.2,0.8,0.5,1.5,0.7,2.2
		c0.7-0.3,1.5-0.6,2.1-1c0.5-0.3,1-0.9,1.9-1.7c0.3,3.8,0.5,7,0.8,10.4c1.7-0.7,2.7-1.1,3.7-1.5c0-1.7,0-3.4,0-5.1
		c-1.8,0.1-2-0.9-2.2-2.5c-0.7-4.4,1.9-8.7,0.4-13.1c-0.1-0.2,0.8-0.8,1.2-1.2c0-1,0-1.9,0-2.9c-0.2-1-0.5-1.9-0.7-2.9
		c-0.2-0.8-0.8-1.8-0.5-2.3c1.3-2.2,0.5-4.3-0.2-6.4l-0.4-0.1l-0.4,0.1c-1,0-1.9,0-2.9,0c-3.2-0.3-6.3-0.6-9.5-0.9
		c-0.7,0-1.5,0-2.2,0c-8.8,0-17.5,0-26.3,0.1c0,0.2-0.1,0.5-0.1,0.7C275.1,15,274.9,15.2,274.7,15.5z"/>
	<path class="st11" d="M297.9,42.4c0-1.7,0-3.4,0-5.5c-1.5-0.1-2.7-0.2-4-0.2c-5.2,0-10.4-0.2-15.6,0c-3,0.1-3.9-1.1-3.6-3.9
		c0.3-3.6,0.5-7.2,0.5-10.9c0-1.9-0.3-3.8-0.5-5.7c-0.5,0.5-1,0.9-1.5,1.4c0.3,7.5,0.5,15.1,0.8,22.6c1.2,0.1,2.4,0.3,3.6,0.4
		c1,0,1.9,0,2.9,0c0.2,0,0.5,0,0.7,0c0.7,0,1.5,0.1,2.2,0.1c3,0.1,6,0.1,9.1,0.2c2.2,0,2,1.6,2,3.1c-0.3,5.3-0.5,10.6-0.8,15.9
		c0.7,0,1.4,0.1,2.2,0.1c0.2-1.3,0.5-2.5,0.7-3.8C297,51.6,297.4,47,297.9,42.4z"/>
	<path class="st12" d="M274,40.1c-0.3-7.5-0.5-15.1-0.8-22.6c-0.5,0.3-1,0.5-1.5,0.8c-0.1,0.3-0.1,0.5-0.2,0.8
		c-0.1,7-0.3,14-0.4,20.9C272,40,273,40.1,274,40.1z"/>
	<path class="st13" d="M274.7,15.5c0.2-0.3,0.4-0.6,0.6-0.9C275.1,15,274.9,15.2,274.7,15.5z"/>
	<path class="st14" d="M299.5,44.4c0.4-1.6,0.1-3,0-4.4c0-0.6,0.4-1.4,0.9-1.7c0.3-0.2,1.4,0,1.6,0.3c1.9,3.1,3.1,1.4,4.5-0.5
		c0.4-0.6,1.2-0.9,2.3-1.7c0.4,2.4,0.8,4.4,1.2,6.3c0.2,0.8,0.5,1.5,0.7,2.2c0.7-0.3,1.5-0.6,2.1-1c0.5-0.3,1-0.9,1.9-1.7
		c0.3,3.8,0.5,7,0.8,10.4c1.7-0.7,2.7-1.1,3.7-1.5c0.3,0,0.6,0.1,1,0.1c-0.1,2.7-0.1,5.3-0.2,8c0,0.2,0,0.5,0,0.7
		c0.2,0,0.4-0.1,0.6-0.1c-0.2,0.8-0.4,1.5-0.6,2.3c-0.6,0.2-1.8,0.4-1.9,0.7c-0.6,2.9-1.1,5.9-1.3,8.8c-0.3,3.4-0.3,6.8-0.3,10.3
		c0,2,0.6,4.1,0.5,6.1c-0.1,6.8-0.6,13.7-0.6,20.5c0,4.7,0.4,9.4,0.7,14.1c0.2,2.9-1,3.8-3.8,3.8c-6-0.1-11.9-0.1-17.9,0
		c-1.1,0,0.5-20.4,0.6-23.5c0.3-0.5,0.9-1,0.9-1.5c0-1.1-0.2-2.1-0.4-3.2c0-0.6,0-1.2,0-1.8c0.1,0,0.3,0,0.3-0.1
		c1.9-1.9,1.8-7.6-0.2-9.4c-0.1-1-0.2-2.1-0.4-3.5c-2.1,0-4.1,0-6.1,0c-1.6-1.2-3.1-2.1-3.3-4.6c-0.2-2.1-1.3-4.5-4.9-4.9
		c-0.5,3.1-0.9,6.2-1.4,9.3c-0.5,0-1,0-1.5,0c0-3,0.1-6.1,0-9.1c0-2.3,0.9-3.6,3.3-4c2.4-0.4,4.7-2,7.4-0.8c0.6,0.3,1.6-0.5,3.1-1
		c-3.7-3-6.9-0.5-10-1c-3.2-0.5-5.5,1.5-6.7,5.1c-0.5-0.4-0.9-0.7-1.4-1.1c0.2-3.4,0.3-6.9,0.5-10.3c0.3-0.1,0.6-0.3,0.9-0.4
		c1.4,2.8,3.2,2.7,5.9,2.4c4.4-0.5,8.8,0.1,13.9,0.2c0-0.6,0-2,0-3.4c0.2-1.3,0.5-2.5,0.7-3.8c0.5-4.6,0.9-9.2,1.4-13.8
		C298.4,43,299,43.7,299.5,44.4z M301.9,71.4c2.3,0.1,1.9-1.9,1.9-3.4c0-1.3,0.5-3.4-1.6-3.2c-0.9,0.1-1.7,2.1-2.8,3.7
		C300.5,69.8,301.2,71.4,301.9,71.4z M303.6,97.4c-0.4-0.4-1.4-0.1-2.1-0.1c0.1,1.2,0.3,2.4,0.4,3.6c0.4,0,0.9-0.1,1.3-0.1
		C304.1,99.8,305.2,98.7,303.6,97.4z M301.9,94.8c0.5,0,1,0.1,1.4,0.1c0.1-1.3,0.3-2.6,0.4-3.8c-0.5-0.1-1.1-0.1-1.6-0.2
		C302.1,92.2,302,93.5,301.9,94.8z"/>
	<path class="st15" d="M319.9,62.2c-0.6,0.2-1.8,0.4-1.9,0.7c-0.6,2.9-1.1,5.9-1.3,8.8c-0.3,3.4-0.3,6.8-0.3,10.3
		c0,2,0.6,4.1,0.5,6.1c-0.1,6.8-0.6,13.7-0.6,20.5c0,4.7,0.4,9.4,0.7,14.1c0.2,2.9-1,3.8-3.8,3.8c-6-0.1-11.9-0.1-17.9,0
		c-1.1,0-2.1,0.9-3.1,1.5c1.2,0,2.4,0,3.5,0c1.5,0,3.1,0,4.6,0c0.4,0,0.8,0,1.1,0c4.4,0.2,8.8,0.3,13.3,0.5c0.6,0,1.1,0.1,1.7,0.1
		c2.1,0.2,2.7-1,2.7-2.9c0-3.4,0.1-6.8,0.1-10.2c0-1.9,0-3.9,0-5.8c0.2-6.1,0.4-12.1,0.6-18.2c0.1-5.6,0.2-11.2,0.2-16.8
		c0.1-3,0.2-6,0.2-9C320.3,64.5,320,63.3,319.9,62.2z"/>
	<path class="st11" d="M301.5,128l-1.1,0c-1.3,0-4.3-1.2-4.5-1.3c0,0-0.1,0-0.1-0.1c-0.8-0.7,0.2-18.6,0.2-23.6l-4.1,2.2
		c-0.1,4.3,2.6,13,2.2,17.3c-0.4,4.2,0.3,6.5,3.9,8.7c0.7,0.4,1.1,1.2,1.6,1.8c11.7-0.2-0.1-0.4,11.6-0.5c2.8,0,4.6-1,5.3-3.8
		c-0.1,0-0.2,0-0.3,0C312.1,128.5,305.5,128.2,301.5,128z"/>
	<path class="st16" d="M299.6,133c-0.5-0.6-1-1.4-1.6-1.8c-3.6-2.2-4.3-4.5-3.9-8.7c0.4-4.3-2.2-17.3-2.2-17.3s-0.1,4.9-0.4,5.2
		c-0.2,5.9-0.4,11.8-0.5,17.7c-0.1,5,0.4,5.4,5.3,5.2C297.4,133.3,298.5,133.1,299.6,133z"/>
	<path class="st15" d="M319.2,51.2c0.3,0,0.6,0.1,1,0.1c0.2,0,0.4,0,0.7,0c0.2-9.9,0.4-19.7,0.6-29.6c0-2.3-0.1-4.6-0.1-6.9
		c-1.4,0-2.9,0-4.3,0c0.8,2.1,1.5,4.1,0.2,6.4c-0.3,0.5,0.3,1.5,0.5,2.3c2.1,0.5,1.7,1.6,0.7,2.9c0,1,0,1.9,0,2.9
		c0.2,1.1,0.7,2.3,0.7,3.4c0.1,4.5,0,8.9,0,13.4C319.2,47.8,319.2,49.5,319.2,51.2z"/>
	<path class="st17" d="M319.3,109.7c0,1.9,0,3.9,0,5.8C319.3,113.6,319.3,111.6,319.3,109.7z"/>
	<path class="st11" d="M296.5,98.4c0-0.6,0-1.2,0-1.8c0.1-3.2,0.1-6.3,0.2-9.5c-0.1-1-0.2-2.1-0.4-3.5c-2.1,0-4.1,0-6.1,0
		c-3.2-0.1-6.4-0.2-9.6-0.3c-0.5,0-1,0-1.5,0c-1.1,0-2.2,0.1-3.3,0.1c-1.8,0.1-2.6-0.8-2.6-2.6c0.1-6.4,0.2-12.8,0.3-19.2
		c-0.4,0.3-0.8,0.6-1.3,1c0.1,1.3,0.2,2.7,0.1,4c-0.1,2.6-0.6,5.3-0.4,7.8c0.4,4.4,1.3,8.7,1.9,13c6,0,12,0,18.3,0
		c0,3.5,0,6.3,0,9.2c-0.1,0.7-0.1,1.5-0.2,2.2c-0.1,2.2-0.2,4.4-0.2,6.6c1.4-0.7,4,0.9,4.1-2.2C296.1,101.5,296.3,99.9,296.5,98.4z"
		/>
	<path class="st12" d="M269.8,87.6c1.4-0.1,2.8-0.2,4.2-0.2c-0.7-4.3-1.5-8.7-1.9-13c-0.2-2.6,0.3-5.2,0.4-7.8c0-1.3-0.1-2.6-0.1-4
		c-0.6,0.3-1.2,0.6-1.9,0.9c-0.2,0.2-0.4,0.5-0.6,0.7c0.1,0.1,0.2,0.2,0.1,0.3c-0.1,1.9-0.1,3.8-0.2,5.8c-0.1,4.3-0.2,8.7-0.3,13
		C269.6,84.6,269.7,86.1,269.8,87.6z"/>
	<path class="st15" d="M273.5,61.5c-0.1,6.4-0.2,12.8-0.3,19.2c0,1.8,0.7,2.7,2.6,2.6c1.1,0,2.2-0.1,3.3-0.1c0-3,0.1-6.1,0-9.1
		c0-2.3,0.9-3.6,3.3-4c2.4-0.4,4.7-2,7.4-0.8c0.6,0.3,1.6-0.5,3.1-1c-3.7-3-6.9-0.5-10-1c-3.2-0.5-5.5,1.5-6.7,5.1
		c-0.5-0.4-0.9-0.7-1.4-1.1c0.2-3.4,0.3-6.9,0.5-10.3c0.3-0.1,0.6-0.3,0.9-0.4c1.4,2.8,3.2,2.7,5.9,2.4c4.4-0.5,8.8,0.1,13.9,0.2
		c0-0.6,0-2,0-3.4c-0.7,0-1.4-0.1-2.2-0.1c-5.5,0-11.1,0.1-16.6,0.1C275.6,59.9,274,59.5,273.5,61.5z"/>
	<path class="st14" d="M319.2,46.1c0-4.5,0.1-8.9,0-13.4c0-1.1-0.5-2.3-0.7-3.4c-0.4,0.4-1.2,1-1.2,1.2c1.5,4.4-1,8.7-0.4,13.1
		C317.2,45.1,317.4,46.2,319.2,46.1z"/>
	<path class="st14" d="M318.5,26.3c1-1.3,1.3-2.4-0.7-2.9C318,24.4,318.2,25.4,318.5,26.3z"/>
	<path class="st15" d="M316.3,14.8c-1,0-1.9,0-2.9,0C314.4,14.8,315.3,14.8,316.3,14.8z"/>
	<path class="st15" d="M280.5,83.3c3.2,0.1,6.4,0.2,9.6,0.3c-1.6-1.2-3.1-2.1-3.3-4.6c-0.2-2.1-1.3-4.5-4.9-4.9
		C281.4,77.1,281,80.2,280.5,83.3z"/>
	<path class="st15" d="M299.4,68.5c1,1.2,1.7,2.9,2.5,2.9c2.3,0.1,1.9-1.9,1.9-3.4c0-1.3,0.5-3.4-1.6-3.2
		C301.3,64.9,300.5,66.9,299.4,68.5z"/>
	<path class="st15" d="M296.6,87c-0.1,3.2-0.1,6.3-0.2,9.5c0.1,0,0.3,0,0.3-0.1C298.7,94.6,298.6,88.9,296.6,87z"/>
	<path class="st15" d="M303.2,100.8c0.9-1,2-2,0.4-3.4c-0.4-0.4-1.4-0.1-2.1-0.1c0.1,1.2,0.3,2.4,0.4,3.6
		C302.3,100.9,302.7,100.8,303.2,100.8z"/>
	<path class="st15" d="M302.2,90.9c-0.1,1.3-0.2,2.6-0.3,3.9c0.5,0,1,0.1,1.4,0.1c0.1-1.3,0.3-2.6,0.4-3.8
		C303.3,91.1,302.7,91,302.2,90.9z"/>
	<path class="st15" d="M296.5,98.4c-0.2,1.6-0.3,3.1-0.5,4.7c0.3-0.5,0.9-1,0.9-1.5C296.9,100.5,296.6,99.5,296.5,98.4z"/>
	<path class="st18" d="M303.2,128.5l0.3,0.1l0.3-0.1C303.6,128.5,303.4,128.5,303.2,128.5z"/>
	<path class="st18" d="M284.9,128.4l0.3,0.1l0.3-0.1C285.3,128.4,285.1,128.4,284.9,128.4z"/>
	<path class="st15" d="M319.9,60c0-0.2,0-0.5,0-0.7C320,59.5,319.9,59.7,319.9,60z"/>
	<path class="st18" d="M301.5,128c4.4,0.2,8.8,0.3,13.3,0.5C310.4,128.4,305.9,128.2,301.5,128z"/>
	<path class="st18" d="M295.7,128c1.5,0,3.1,0,4.6,0C298.8,128,297.3,128,295.7,128z"/>
</g>
<g>
	<path class="st9" d="M226.6,127.6c-2.5-0.3-2.7-2.2-2.6-4.4c0.3-9.5,0.7-19,0.6-28.5c-0.1-17-0.4-33.9-0.7-50.9
		c-0.1-4.4-0.4-8.8-0.6-13.2c0.6-0.5,1.2-1,1.8-1.5c0.4,0.5,1.2,1.1,1.2,1.6c-0.1,11.6-0.3,23.2-0.4,34.7c0.4,1.4,0.9,2.8,1.3,4.2
		c0,0.7,0,1.5,0,2.2c-0.4,1.4-1.3,2.7-1.3,4.1c-0.1,16.4-0.1,32.8-0.1,50.5c1.5-1.1,2.2-1.7,3-2.3c7,2.6,13.5-0.7,15-7.6
		c2.8,1,3.1,0.8,3.2-2.8c0.3-11.8,0.5-23.6,0.8-35.3c0-1.6,0.3-3.2,0.5-4.8c0-0.4-0.1-0.8-0.1-1.1c-0.9-0.6-1.8-1.1-3.4-2.2
		c3.8-0.9,3.8-3.4,3.7-6.1c-0.1-9.2,0-18.5-0.1-27.7c0-1.3-0.4-2.6-0.7-3.8c0-0.8,0-1.6,0-2.5c0-0.2,0-0.5,0.1-0.7
		c0.7,0.1,1.4,0.2,2.1,0.3c-0.2,4.3-0.6,8.6-0.6,12.9c0,2.8,0.7,5.6,0.6,8.5c-0.2,20.2-0.4,40.5-0.8,60.7c-0.1,4.2-0.5,8.3-0.8,12.4
		c-1.4,0.6-2.5,1-3.6,1.5c-0.9,0-1.9,0.1-2.8,0.1C236.9,126.5,231.7,127.1,226.6,127.6z"/>
	<path class="st3" d="M251.5,31.1c0,5.9,0,11.5,0,17.1c0.1,7.9,0.2,15.7,0.4,23.6c0,3.3-0.1,6.6-0.1,9.8c-0.3,1.2-0.9,2.4-1,3.6
		c-0.3,12.3-0.5,24.7-0.8,37c-0.1,3.8-1.5,4.8-5.2,3.5c1.1-0.5,2.2-0.9,3.6-1.5c0.3-4,0.7-8.2,0.8-12.4c0.3-20.2,0.6-40.5,0.8-60.7
		c0-2.8-0.7-5.6-0.6-8.5c0-4.3,0.4-8.6,0.6-12.9c0.2-0.4,0.3-0.8,0.5-1.2c0,0,0.3,0,0.3,0l0.3-0.1"/>
	<path class="st7" d="M244.9,125.8c3.6,1.3,5.1,0.3,5.2-3.5c0.2-12.3,0.5-24.7,0.8-37c0-1.2,0.6-2.4,1-3.6c0,3.3-0.1,6.7-0.1,10
		c0,2.8,0.3,5.6,0.3,8.4c0,8.5,0,16.9,0,25.4c0,0.6-0.3,1.3-0.5,1.9c-0.5,0.1-1,0.1-1.5,0.2c-0.9,0.1-1.9,0.2-2.8,0.2
		c-2,0.2-4,0.4-5.9,0.6c-0.5-0.1-1-0.1-1.5-0.2c0.8-0.8,1.5-1.5,2.3-2.3C243,125.9,244,125.8,244.9,125.8z"/>
	<path class="st2" d="M225.2,29c-0.6,0.5-1.2,1-1.8,1.5"/>
	<path class="st3" d="M242.1,125.9c-0.8,0.8-1.5,1.5-2.3,2.3c-3.3,0.4-6.7,0.9-10,1c-1.1,0-2.2-1-3.3-1.6
		C231.7,127.1,236.9,126.5,242.1,125.9z"/>
	<path class="st7" d="M251.9,71.8c-0.1-7.9-0.2-15.7-0.4-23.6c0.2,3.4,0.6,6.9,0.6,10.3C252.2,63,252,67.4,251.9,71.8z"/>
	<path class="st19" d="M250.4,26.9c0,0.6,0,1.1,0.1,1.7c-0.2,0.4-0.3,0.8-0.5,1.2c-0.7-0.1-1.4-0.2-2.1-0.3c-2.5,0-5.1,0-7.8,0
		c1.1,2.4,1.8,3.9,2.4,5.5c1.2-3,2-5.5,5.3-4.7c0,0.8,0,1.6,0,2.5c-0.6,0.4-1.2,0.8-1.8,1.2c1.1,4.2,2.4,8.2-0.6,12
		c-0.5,0.7-0.5,2-0.5,3.1c-0.1,3,0.1,5.9-0.1,8.9c-0.1,3.3-0.5,6.6-0.7,9.9c-0.5-0.6-1.2-1.2-1.4-1.9c-0.5-2.2-0.8-4.4-1.3-7.3
		c-1.7,2.9-3.3,3.2-5.3,1.2c-0.5-0.5-1.5-0.4-2.3-0.3c-0.2,0-0.3,0.9-0.5,1.3c0.7,0.3,1.5,0.5,2.2,0.9c0.2,0.1,0.3,0.7,0.4,0.8
		c-1.2,0.8-2.4,1.7-3.5,2.5c0.1,0.3,0.2,0.6,0.3,0.9c1.5,0,2.9,0,4.5,0c0.6,1.8,1.2,3.6,1.9,5.8c-2.6,0-4.5,0-5.7,0
		c-0.8-1.3-1.3-2.2-1.8-3c-0.8,0.6-1.5,1.3-2.3,1.8c-0.7,0.5-1.5,0.9-2.3,1.3c0-0.7,0-1.5,0-2.2c-0.4-1.4-0.9-2.8-1.3-4.2
		c0.2-11.6,0.3-23.2,0.4-34.7c0-0.5-0.8-1.1-1.2-1.6 M229.5,59.2c0,2.4,0,4.8,0,7.1C231,60.8,231,60.8,229.5,59.2z M242.5,40.3
		c0-0.1,0.1-0.2,0.1-0.3c0,0-0.2-0.1-0.2-0.1c0,0.1-0.1,0.2-0.1,0.3C242.2,40.2,242.4,40.3,242.5,40.3z"/>
	<path class="st20" d="M244.2,67.8c0.2-3.3,0.6-6.6,0.7-9.9c0.1-3,0-5.9,0.1-8.9c0-1,0-2.4,0.5-3.1c3-3.8,1.7-7.8,0.6-12
		c0.6-0.4,1.2-0.8,1.8-1.2c0.2,1.3,0.7,2.6,0.7,3.8c0.1,9.2,0,18.5,0.1,27.7c0,2.7,0.1,5.2-3.7,6.1c1.7,1.1,2.5,1.6,3.4,2.2
		c0,0.3,0.1,0.7,0.1,1.1c-0.2,1.6-0.5,3.2-0.5,4.8c-0.3,11.8-0.5,23.6-0.8,35.3c-0.1,3.5-0.4,3.7-3.2,2.8c-1.5,6.9-8.1,10.2-15,7.6
		c-1.6-4.4-0.7-8.8-0.5-13.7c1.6,1.9,2.8,3.3,4.2,4.9c2-4.1,0.6-6.4-3.6-7c0.2-2.1,0.6-4.3,0.6-6.4c-0.1-3,0.9-4.2,3.6-4
		c2.6,0.2,5.2,0,8.3,0c-0.6-1.7-1.3-3.4-1.1-3.4c2.9-1.8,1.2-4.9,1.8-7.3c0.2-0.9,0.9-1.6,1.4-2.3c0,6.6,0,13.2,0,20.5
		c2.9-3,2.1-5.6,1.5-8.2c0.5-0.9,1.3-1.8,1.4-2.7c0.2-2.6,0.1-5.3,0.1-7.9c-0.5-1.9-1.2-3.7-1.4-5.6c-0.4-3.3-0.5-6.6-0.8-9.9
		C244.2,70,244.2,68.9,244.2,67.8z"/>
	<path class="st21" d="M243.5,85c-0.5,0.8-1.2,1.5-1.4,2.3c-0.6,2.4,1.2,5.5-1.8,7.3c-0.1,0.1,0.6,1.7,1.1,3.4c-3.1,0-5.7,0.1-8.3,0
		c-2.7-0.2-3.7,1-3.6,4c0.1,2.1-0.4,4.3-0.6,6.4c4.2,0.6,5.6,2.9,3.6,7c-1.4-1.6-2.6-3-4.2-4.9c-0.2,4.8-1.1,9.2,0.5,13.7
		c-0.8,0.6-1.5,1.2-3,2.3c0-17.7,0-34.1,0.1-50.5c0-1.4,0.8-2.7,1.3-4.1c0.8-0.4,1.6-0.8,2.3-1.3c0.8-0.6,1.5-1.2,2.3-1.8
		c0.5,0.8,1,1.7,1.8,3c1.2,0,3.1,0,5.7,0c-0.7-2.2-1.3-4-1.9-5.8c-1.5,0-3,0-4.5,0c-0.1-0.3-0.2-0.6-0.3-0.9
		c1.1-0.8,2.3-1.6,3.5-2.5c-0.1-0.2-0.1-0.7-0.4-0.8c-0.7-0.4-1.4-0.6-2.2-0.9c0.2-0.5,0.3-1.3,0.5-1.3c0.8,0,1.8-0.2,2.3,0.3
		c1.9,1.9,3.6,1.6,5.3-1.2c0.5,3,0.8,5.2,1.3,7.3c0.2,0.7,0.9,1.3,1.4,1.9c0,1.1,0,2.2,0,3.3c-0.3,1.2-1,2.3-1,3.5
		C243.2,78.1,243.4,81.5,243.5,85z"/>
	<path class="st20" d="M247.9,30.3c-3.3-0.8-4.1,1.7-5.3,4.7c-0.7-1.5-1.4-3.1-2.4-5.5c2.7,0,5.3,0,7.8,0
		C247.9,29.8,247.9,30,247.9,30.3z"/>
	<path class="st21" d="M226,65.4c0.4,1.4,0.9,2.8,1.3,4.2C226.9,68.2,226.4,66.8,226,65.4z"/>
	<path class="st9" d="M251,28.6"/>
	<path class="st22" d="M251,28.6l-0.3,0.1l-0.3,0c0-0.6,0-1.1-0.1-1.7L225.2,29"/>
	<path class="st21" d="M229.5,59.2c1.5,1.6,1.5,1.6,0,7.1C229.5,63.9,229.5,61.6,229.5,59.2z"/>
	<path class="st20" d="M242.5,40.3c-0.1,0-0.2-0.1-0.2-0.1c0-0.1,0.1-0.2,0.1-0.3c0.1,0,0.2,0.1,0.2,0.1
		C242.6,40.1,242.5,40.2,242.5,40.3z"/>
	<path class="st19" d="M243.5,85c-0.1-3.5-0.3-6.9-0.2-10.4c0-1.2,0.6-2.4,1-3.5c0.2,3.3,0.4,6.6,0.8,9.9c0.2,1.9,0.9,3.8,1.4,5.6
		c-0.5,1.1-1.3,2.2-1.4,3.4c-0.2,2.4-0.1,4.8-0.1,7.2c0.6,2.6,1.4,5.2-1.5,8.2C243.5,98.1,243.5,91.5,243.5,85z"/>
	<path class="st21" d="M245,97.2c0-2.4-0.2-4.9,0.1-7.2c0.1-1.2,0.9-2.3,1.4-3.4c0,2.6,0.1,5.3-0.1,7.9
		C246.3,95.5,245.5,96.3,245,97.2z"/>
</g>
<g>
	<path class="st9" d="M134.5,18.2c0.2-0.3,9.5-0.3,14.4,0c10.1,0.5,20.2,0.7,30.3,0.5c3.8-0.1,7.4-0.7,10.7,1.7
		c0.5,0.5,1,0.9,1.5,1.4c0.2,0.2,0.5,0.5,0.7,0.7c0,0.2,0,0.4,0,0.6c0,16.1,0,32.3-0.1,48.4c-0.1,8.9-0.4,17.7-0.5,26.6
		c-0.1,7.9,0,15.8-0.1,23.7c0,2.1,0,4.5-2.8,5.2c0-0.3-0.1-0.5-0.1-0.8c0.5-5.4,1.2-10.8,1.4-16.2c0.2-7,0-14.1,0-21.1
		c0-3.9,0-7.8,0-11.8c0-0.7,0-1.4,0-2.2c0-9.3,0-18.5,0-27.8c0-0.5,0-0.9,0-1.4c-0.2-0.5-0.5-1-0.7-1.5c0-0.5,0-0.9,0-1.4
		c0-1,0.1-2,0.1-3c0.2-0.2,0.4-0.4,0.4-0.6c0.4-4,0.8-8,1.1-12c0-0.2-0.5-0.4-0.8-0.6c-0.2-0.5-0.5-1-0.7-1.5
		c-0.2-0.2-0.4-0.5-0.7-0.7c0-0.3,0-0.5-0.1-0.8c-0.7-1.2-1.5-2.4-2.2-3.6c-5.8,0-11.7,0-17.5,0c-0.7-0.2-1.5-0.4-2.2-0.7
		c-1.2,0-2.4,0-3.6,0c-0.3,0-0.5,0-0.8,0c-0.7,0-1.4,0-2.2,0c-1,0.2-2,0.4-2.9,0.6c-1.5,0-2.9,0-4.4,0c-3,0-6,0-9,0
		c-2,0-2.9-1.9-2.7,0c-0.3,0.5-0.5,0.9-0.8,1.4c-1.1,0.1-2.3,0.2-3.9,0.4c-0.2,10.7-0.4,23.9-0.5,34.2c0,1.6,0.4,3.3,0.7,5
		c-0.2,1.2-0.7,2.3-0.7,3.5c0,16.4,0,32.8,0,49.3c0,2.6-0.4,7.6,0.5,9.9c1.5,3.9,5.1,3.7,9.2,3.7c6.9,0.1,13.9-0.5,20.8-0.6
		c1.7,0,3.4,0.8,5,1.5c1.7,0.8,3.1,1,4.6-0.5c0.5-0.5,2.3-0.8,2.4-0.7c0.9,2.6,2.8,0.9,4.3,1.1c1-0.5,2.1-0.9,3.1-1.4
		c1,0,1.9,0,2.9,0.1c-1.3,2.2-3.2,2.9-5.8,2.9c-11.7-0.1-23.5-0.1-35.2-0.1c-1.5,0-10.8,0.6-12.3,0.6c-2.6-1.8,2.6,1.8,0,0
		c0-0.2-0.1-4-0.2-4.2c0-16.6,0.1-35.3,0-51.9C134.9,57.9,134.7,34.8,134.5,18.2z"/>
	<path class="st3" d="M135.2,130.5c1.5,0,10.8-0.6,12.3-0.6c11.7,0,23.5,0,35.2,0.1c2.5,0,4.5-0.7,5.8-2.9l0,0
		c2.8-0.7,2.8-3.1,2.8-5.2c0.1-7.9,0-15.8,0.1-23.7c0.1-8.9,0.5-17.7,0.5-26.6c0.1-16.1,0.1-32.3,0.1-48.4c0.4,0.3,0.8,0.5,1.2,0.8
		c0.6,0.8,1.3,1.5,1.9,2.3c0,7.3,0.1,14.6,0.1,21.8c0,3.6-0.2,7.3-0.3,10.9c0,0.7,0,1.5,0,2.2c0.1,2.9,0.1,5.8,0.2,8.8
		c0,1.7-0.1,3.4-0.1,5.1c0,1.7-0.1,3.4-0.1,5.1c0,2,0,3.9,0,5.9c0,3.4,0.1,6.8,0.1,10.2c0,0.5,0,1,0,1.5c0,6.3,0,6.3,0,12.7
		c2.1,6.4-10.7,22.9-13.4,21.5c-0.7,0-1.4,0-2.1,0c-7.6-0.1-15.2-0.2-22.8-0.3c-4.1-0.1-8.3-0.2-12.4-0.3
		C144.2,131.1,135.3,130.8,135.2,130.5z"/>
	<path class="st8" d="M192.1,22.6c-0.2-0.2-0.5-0.5-0.7-0.7C191.6,22.1,191.9,22.3,192.1,22.6z"/>
	<path class="st23" d="M182.6,128.5c-1.4-0.2-3.4,1.5-4.3-1.1c0-0.1-1.8,0.2-2.4,0.7c-1.5,1.5-2.9,1.3-4.6,0.5
		c-1.6-0.7-3.3-1.5-5-1.5c-6.9,0.1-13.9,0.6-20.8,0.6c-4.1,0-7.7,0.2-9.2-3.7c-0.9-2.3-0.5-7.3-0.5-9.9c0-16.4,0-32.8,0-49.3
		c0-1.2,0.4-2.3,0.7-3.5c2.4-4.5,0.8-9.4,1.3-14.1c0.6-5.2,0.2-10.5,0.1-15.7c0-2.1,0.7-3.3,2.9-3.1c0,1.5,0,2.9,0,4.4
		c-0.2,0.5-0.5,1-0.7,1.5c0,2.2,0,4.4,0,6.6c-0.9,7.1,0,15.3,2.2,16.5c0-6.1,0-12,0-18c0.7-1.9-1.4-4.5,1.5-5.8c0,5.7,0,11.4,0,17.1
		c0,2.5-0.6,5.1,1.7,7.1c0.4,0.4,0.6,1.7,0.3,2c-1.5,1.6-0.5,3,0.2,4.5c0.9,1.9,2,3.8,0.9,6.2c-0.3,0.7,1,2.2,1.5,3.3
		c0.3-0.1,0.6-0.1,0.9-0.2c-0.1-3.4,2-4.6,4.7-4.9c1-0.1,1.9-0.1,2.9-0.1c-0.2,10.5-0.4,21-0.6,31.5c-2.4,0.2-4.9,0.1-6.7,2.1
		c1.5,3.1,3.9,1.2,5.8,1.6c0.5,0.5,0.9,0.9,1.4,1.4c-0.1,1.1-0.3,2.1-0.5,3.3c1.8,1.4,3.2,1.3,4.1-1c1.7-0.2,3.4-0.4,5.1-0.7
		c1,0.5,2,0.9,2.9,1.4c0.2,1.8-0.2,2.9-2.4,3c-2.7,0.2-5.4,0.9-8.7,1.6c1.9,0.5,3.2,0.9,4.6,1.2c0.1,1.4,0.1,2.7,0.2,4.6
		c1.1-1.1,1.6-1.7,2.1-2.2c0.6,0.8,1,1.3,0.8,1.1c4.4-1.7,8.4-3.2,12.8-4.9c0.2-1.5,0.5-3.9,3.8-3.7c0.2,2.2,0.5,4.4,0.7,6.6
		c-0.2,1.6-0.5,3.2-0.6,4.8c-0.1,2.4-0.2,4.8-0.2,7.2C181.8,127.8,182.4,128.1,182.6,128.5z"/>
	<path class="st23" d="M168.8,20.3c5.8,0,11.7,0,17.5,0c0,0.7,0,1.4,0,2.2c-0.9,3.3-3.4,1.5-5.6,1.7c0,1.1,0,2.1,0,2.3
		c2.6,0.7,4.8,1.3,7,1.8c0,2-0.2,4.1,0.1,6.1c0.2,1.9,0.9,3.7,1.4,5.6c0,1-0.1,2-0.1,3c-1-0.4-2-0.8-3-1.3c0.3-0.3,0.7-0.5,1-0.8
		c-0.8,1.4-1.6,2.8-2.4,4.2c-0.5-0.7-1.1-1.3-1.4-2.1c-0.5-1.1-0.7-2.4-1-3.5c-2.9,0.8-5.4,1.5-7.9,2.1c-0.1-0.2-0.2-0.5-0.3-0.7
		c0.5-0.6,1.3-1.1,1.3-1.7c0.1-1.9-4.6-5.9-6.6-5.8c-2.2,0.1-4.7,0.8-6.6,0.1c-2.4-0.9-4.4-0.9-6.7-0.2c-2.8-0.6-5.6-1.3-8.3-1.9
		c-1,0.3-2.2,0.7-3.4,1.1c0-2.9,0-5.8,0-8.8c0.1-0.6,0.3-1.3,0.5-2.2c0.7,0.4,1.1,0.7,1.5,0.8c3.5,1.4,6.2,0.5,6.8-2.3
		c1.5,0,2.9,0,4.4,0c1-0.2,2-0.4,2.9-0.6c0.7,0,1.4,0,2.2,0c0.3,0,0.5,0,0.8,0c1.2,0,2.4,0,3.6,0C167.3,19.9,168,20.1,168.8,20.3z"
		/>
	<path class="st23" d="M189.9,47.4c0,9.3,0,18.5,0,27.8c-0.5-1-1.2-1.9-1.4-2.9c-0.2-1.3-0.1-2.8-0.1-4.6c-1.7,0.6-2.6,1.2-3.6,1.2
		c-4.5,0.1-4.5,0-4.5,4.5c0,1.6-0.1,3.2,0.1,4.7c0.1,0.8,0.9,1.4,1.4,2.1c0,3.7,0,7.3,0,11c-3.8-2.2-5.7-5.7-4.2-9.7
		c1.6-4.1,1-8.1,1.2-12.1c0.1-3.1,0-6.2,0-9.3c3-0.4,5.4-0.6,7.8-1.1c0.7-0.2,1.2-1.4,1.7-2.1c0-2.2-0.1-4.5,0.1-6.7
		C188.7,49.2,189.4,48.3,189.9,47.4z"/>
	<path class="st22" d="M189.9,77.3c0,3.9,0,7.8,0,11.8c-1.9-0.2-2.2,0.9-2.2,2.5c-0.2,10-0.5,20.1-0.6,30.1c0,1.6,0.9,3.1,1.4,4.7
		c0,0.3,0.1,0.5,0.1,0.8l0,0c-1,0-1.9,0-2.9-0.1c-0.5-0.6-1.2-1.3-1.3-1.9c-0.1-1,0.2-2.1,0.4-3.2c-0.2-0.7-0.5-1.5-0.7-2.2
		c0-1.5,0-2.9,0-4.4c0.2-1.3,0.7-2.5,0.7-3.8c0-10.4,0-20.9,0-31.3c1.3,0.2,2.5,0.5,3.2,0.6C188.7,79.6,189.3,78.5,189.9,77.3z"/>
	<path class="st20" d="M189.9,77.3c-0.6,1.1-1.2,2.2-1.9,3.5c-0.7-0.1-1.9-0.4-3.2-0.6c-1,0-1.9,0-2.9,0c-0.5-0.7-1.3-1.4-1.4-2.1
		c-0.2-1.6-0.1-3.2-0.1-4.7c0-4.5,0-4.4,4.5-4.5c1,0,1.9-0.6,3.6-1.2c0,1.8-0.2,3.2,0.1,4.6c0.2,1,0.9,1.9,1.4,2.9
		C189.9,75.9,189.9,76.6,189.9,77.3z"/>
	<path class="st20" d="M141,28.4c-2.3-0.2-3,1.1-2.9,3.1c0.1,5.2,0.5,10.5-0.1,15.7c-0.6,4.7,1,9.6-1.3,14.1c-0.2-1.7-0.7-3.3-0.7-5
		c0.1-10.3,0.3-23.5,0.5-34.2c1.6-0.2,2.7-0.3,3.9-0.4C140.5,23,140.7,27.2,141,28.4z"/>
	<path class="st20" d="M188.5,126.3c-0.5-1.6-1.4-3.1-1.4-4.7c0.1-10,0.4-20.1,0.6-30.1c0-1.6,0.3-2.7,2.2-2.5c0,7,0.2,14.1,0,21.1
		C189.7,115.6,189,121,188.5,126.3z"/>
	<path class="st19" d="M189.9,47.4c-0.5,0.9-1.3,1.8-1.4,2.8c-0.2,2.2-0.1,4.5-0.1,6.7c-1.3-0.1-3.2,0.5-3.3-1.7
		c-0.2-3.3-0.2-6.7-0.3-10c0.8-1.4,1.6-2.8,2.4-4.2c-0.3,0.3-0.7,0.5-1,0.8c1,0.4,2,0.8,3,1.3c0,0.5,0,0.9,0,1.4
		c0.2,0.5,0.5,1,0.7,1.5C189.9,46.4,189.9,46.9,189.9,47.4z"/>
	<path class="st19" d="M141,28.4c-0.3-1.2-0.5-5.4-0.8-6.7c0.3-0.5,0.5-0.9,0.8-1.4c1,0.2,1.9,3.4,2.9,3.7c0,2.9,0,5.8,0,8.8
		c0,0.2,0,0.5,0,0.7c-2.9,1.3-0.8,3.9-1.5,5.8c-0.7,0.5-1.4,1-2.2,1.5c0-2.2,0-4.4,0-6.6c0.2-0.5,0.5-1,0.7-1.5
		C141,31.3,141,29.9,141,28.4z"/>
	<path class="st21" d="M187.8,28.4c-2.2-0.6-4.4-1.2-7-1.8c0-0.3,0-1.2,0-2.3c2.1-0.2,4.7,1.6,5.6-1.7c0.7,0.5,1.5,0.9,2.2,1.4
		c0,0.3,0,0.5,0.1,0.8c0.2,0.2,0.4,0.5,0.7,0.7c0.2,0.5,0.5,1,0.7,1.5C189.2,27.4,188.5,27.9,187.8,28.4z"/>
	<path class="st22" d="M187.8,28.4c0.7-0.5,1.5-1,2.2-1.5c0.3,0.2,0.8,0.4,0.8,0.6c-0.3,4-0.7,8-1.1,12c0,0.2-0.3,0.4-0.4,0.6
		c-0.5-1.9-1.2-3.7-1.4-5.6C187.6,32.5,187.8,30.4,187.8,28.4z"/>
	<path class="st20" d="M143.9,24c-1-0.2-1.9-3.4-2.9-3.7c-0.2-2,0.7,0,2.7,0c3,0,6,0,9,0c-0.6,2.9-3.3,3.8-6.8,2.3
		c-0.4-0.2-0.8-0.4-1.5-0.8C144.2,22.7,144,23.4,143.9,24z"/>
	<path class="st20" d="M184.8,122c-0.2,1.1-0.5,2.2-0.4,3.2c0.1,0.7,0.8,1.3,1.3,1.9c-1,0.5-2.1,0.9-3.1,1.4
		c-0.3-0.4-0.8-0.7-0.8-1.1c0-2.4,0-4.8,0.2-7.2c0.1-1.6,0.4-3.2,0.6-4.8c0.5,0,1,0,1.5,0c0,1.5,0,2.9,0,4.4
		C182.9,121,183.3,121.7,184.8,122z"/>
	<path class="st22" d="M188.5,23.9c-0.7-0.5-1.5-0.9-2.2-1.4c0-0.7,0-1.4,0-2.2C187,21.5,187.8,22.7,188.5,23.9z"/>
	<path class="st22" d="M160,19.7c-1,0.2-2,0.4-2.9,0.6C158,20.1,159,19.9,160,19.7z"/>
	<path class="st23" d="M189.9,46c-0.2-0.5-0.5-1-0.7-1.5C189.5,45,189.7,45.5,189.9,46z"/>
	<path class="st22" d="M168.8,20.3c-0.7-0.2-1.5-0.4-2.2-0.7C167.3,19.9,168,20.1,168.8,20.3z"/>
	<path class="st22" d="M189.2,25.4c-0.2-0.2-0.4-0.5-0.7-0.7C188.8,24.9,189,25.2,189.2,25.4z"/>
	<path class="st22" d="M162.9,19.7c-0.3,0-0.5,0-0.8,0C162.4,19.7,162.7,19.7,162.9,19.7z"/>
	<path class="st20" d="M184.9,45.2c0.1,3.3,0.1,6.7,0.3,10c0.1,2.2,2,1.6,3.3,1.7c-0.6,0.7-1,1.9-1.7,2.1c-2.3,0.5-4.8,0.7-7.8,1.1
		c0,3.1,0.1,6.2,0,9.3c-0.2,4,0.4,8-1.2,12.1c-1.5,4,0.4,7.5,4.2,9.7c0,5.8,0,11.7,0,17.5c-3.3-0.2-3.6,2.2-3.8,3.7
		c-4.4,1.7-8.4,3.2-12.8,4.9c0.1,0.2-0.3-0.4-0.8-1.1c-0.5,0.5-1,1.1-2.1,2.2c-0.1-1.9-0.1-3.2-0.2-4.6c4.9,0.7,9-1.2,13.3-3.8
		c-0.7-0.6-1.2-1-1.6-1.3c2.3-1.8,2.1-3.7,1.8-6.7c-0.9-6.7-1.2-13.8,0.1-20.3c1.7-8.3,0.8-16.3,0.1-24.7c-1.3-0.1-2.4-0.1-3.4-0.2
		c0-0.7,0-1.5,0-2.2c0.7-0.9,1.4-1.9,2.1-2.8c0.2,0.1,0.5,0.5,0.9,0.7c0.9,0.4,1.8,0.8,2.8,1.2c0.3-1,0.8-2,0.7-2.9
		c-0.2-1.6-0.7-3.2-1.2-5.1c-1.7,0.6-3.2,1.2-4.6,1.7c-0.7-0.4-1.5-0.8-2.2-1.2c0-0.2-0.1-0.5-0.1-0.7c2.6-3.1-0.3-4.1-2.1-5.7
		c-0.5,0.7-1,1.3-1.4,1.8c-2.3-0.4-4.7-2.5-6.8,0.5c-0.1,0.1-1.7-0.4-1.9-0.9c-1.1-2.5-2-5.1-3-7.6c2.3-0.7,4.3-0.7,6.7,0.2
		c1.9,0.7,4.4,0,6.6-0.1c2-0.1,6.7,3.8,6.6,5.8c0,0.6-0.9,1.1-1.3,1.7c0.1,0.2,0.2,0.5,0.3,0.7c2.5-0.7,5-1.3,7.9-2.1
		c0.3,1.1,0.5,2.4,1,3.5C183.7,43.9,184.4,44.5,184.9,45.2z"/>
	<path class="st21" d="M155.6,33.5c1,2.6,1.9,5.1,3,7.6c0.2,0.5,1.8,1,1.9,0.9c2.1-3,4.5-0.9,6.8-0.5c-0.9,0.7-1.8,1.3-2.6,2
		c-0.6,0.6-1.1,1.3-1.6,1.9c-1.4,0.2-2.8,0.4-4.2,0.5c-1.6,0.2-2.2,1-2.2,2.6c0.2,6.6,0.3,13.2,0.5,19.9c-1,0-2,0-2.9,0.1
		c-2.8,0.4-4.8,1.5-4.7,4.9c-0.3,0.1-0.6,0.1-0.9,0.2c-0.6-1.1-1.9-2.5-1.5-3.3c1-2.4-0.1-4.2-0.9-6.2c-0.7-1.5-1.6-2.9-0.2-4.5
		c0.3-0.3,0.1-1.7-0.3-2c-2.3-2-1.7-4.6-1.7-7.1c0-5.7,0-11.4,0-17.1c0-0.2,0-0.5,0-0.7c1.2-0.4,2.4-0.8,3.4-1.1
		C150,32.3,152.8,32.9,155.6,33.5z"/>
	<path class="st22" d="M172.4,56.9c1.1,0.1,2.1,0.1,3.4,0.2c0.6,8.4,1.5,16.4-0.1,24.7c-1.3,6.6-0.9,13.6-0.1,20.3
		c0.4,3,0.5,4.9-1.8,6.7c-0.7,0-1.4,0-2.2,0l0,0c-1-0.2-2-0.5-2.9-0.7c-1-0.5-2-0.9-2.9-1.4c2.1-0.5,4.3-1.1,5.8-1.5
		c-0.6-2.4-1-4.2-1.4-5.9c0-0.5,0-0.9,0.1-1.4c0.2-0.4,0.6-0.9,0.6-1.3c0.1-5.8-0.5-11.7,0.3-17.4c0.8-5.6,1.3-11.1,1.2-16.8
		C172.4,60.6,172.4,58.7,172.4,56.9z"/>
	<path class="st2" d="M157.2,68.5c-0.2-6.6-0.3-13.2-0.5-19.9c-0.1-1.7,0.5-2.5,2.2-2.6c1.4-0.1,2.8-0.3,4.2-0.5
		c0.4-0.1,0.8-0.1,1.3-0.2c0.5,0,1.1,0,1.6,0c1.6,0,3.3,0.1,4.9,0.1c0,0.2,0.1,0.5,0.1,0.7c-0.4,0.5-0.8,0.9-1.3,1.4
		c-2.5,0.2-5,0.5-7.4,0.7l-0.3,0.1c-1.3-0.2-2.5-0.3-2.6,1.5c-0.1,2.5-0.4,5-0.4,7.5c-0.1,13.5-0.3,26.9-0.3,40.4
		c0,2,0.9,3.9,1.3,5.9c-0.2,0.7-0.4,1.4-0.6,2.1c-0.8-0.2-1.5-0.5-2.3-0.7c-0.5-0.5-0.9-0.9-1.4-1.4c0.3-1.2,0.6-2.5,0.9-3.7
		C156.8,89.5,157,79,157.2,68.5z"/>
	<path class="st21" d="M181.9,108.8c0-5.8,0-11.7,0-17.5c0-3.7,0-7.3,0-11c1,0,1.9,0,2.9,0c0,10.4,0,20.9,0,31.3
		c0,1.3-0.5,2.5-0.7,3.8c-0.5,0-1,0-1.5,0C182.4,113.2,182.1,111,181.9,108.8z"/>
	<path class="st21" d="M168.8,108.1c1,0.2,2,0.5,2.9,0.7c-0.1,0.1-0.1,0.2-0.2,0.3c0.1-0.1,0.1-0.2,0.2-0.3c0.7,0,1.4,0,2.2,0
		c0.4,0.4,0.9,0.7,1.6,1.3c-4.3,2.6-8.4,4.5-13.3,3.8c-1.3-0.4-2.7-0.7-4.6-1.2c3.3-0.6,6-1.4,8.7-1.6
		C168.6,110.9,168.9,109.8,168.8,108.1z"/>
	<path class="st21" d="M140.3,40.8c0.7-0.5,1.4-1,2.2-1.5c0,5.9,0,11.9,0,18C140.3,56.1,139.4,48,140.3,40.8z"/>
	<path class="st24" d="M159.4,105.8c0.2-0.7,0.4-1.4,0.6-2.1c0.2,0,0.4,0,0.5,0c2.2,2.6,4.9,1.2,7.3,0.5c0.9-0.2,1.2-2.1,1.8-3.3
		c0.3-0.5,0.5-1.1,0.7-1.6c0.4,1.8,0.8,3.5,1.4,5.9c-1.5,0.4-3.7,0.9-5.8,1.5c-1.7,0.2-3.4,0.4-5.1,0.7
		C160.3,106.8,159.8,106.3,159.4,105.8z"/>
	<path class="st21" d="M156.6,100c-0.3,1.2-0.6,2.5-0.9,3.7c-1.9-0.4-4.3,1.4-5.8-1.6C151.7,100.1,154.2,100.2,156.6,100z"/>
	<path class="st22" d="M159.4,105.8c0.5,0.5,0.9,1,1.4,1.6c-0.9,2.3-2.3,2.5-4.1,1c0.2-1.2,0.3-2.2,0.5-3.3
		C157.8,105.3,158.6,105.6,159.4,105.8z"/>
	<path class="st21" d="M141,32.8c-0.2,0.5-0.5,1-0.7,1.5C140.5,33.8,140.7,33.3,141,32.8z"/>
	<path class="st23" d="M184.8,122c-1.5-0.3-1.9-1-0.7-2.2C184.3,120.5,184.6,121.2,184.8,122z"/>
	<path class="st24" d="M169.6,47.5c0.4-0.5,0.8-0.9,1.3-1.4c0.7,0.4,1.5,0.8,2.2,1.2c-0.2,2.4-0.5,4.8-0.7,7.3c0,0.7,0,1.5,0,2.2
		c0,1.8-0.1,3.7,0,5.5c0.1,5.6-0.4,11.2-1.2,16.8c-0.8,5.7-0.2,11.6-0.3,17.4c0,0.4-0.4,0.9-0.6,1.3c-0.2-5.1-0.7-10.2-0.6-15.2
		c0.2-10.2,0.8-20.3,1.2-30.5c0.1-1.5,0.6-3.2-1.4-4C169.5,47.9,169.6,47.7,169.6,47.5z"/>
	<path class="st22" d="M172.4,54.7c0.2-2.4,0.5-4.8,0.7-7.3c1.4-0.5,2.9-1.1,4.6-1.7c0.5,1.9,1,3.5,1.2,5.1c0.1,0.9-0.5,1.9-0.7,2.9
		c-0.9-0.4-1.9-0.7-2.8-1.2c-0.4-0.2-0.7-0.6-0.9-0.7C173.8,52.9,173.1,53.8,172.4,54.7z"/>
	<path class="st19" d="M164.3,45.3c-0.4,0.1-0.8,0.1-1.3,0.2c0.5-0.7,1-1.4,1.6-1.9c0.8-0.7,1.8-1.4,2.6-2c0.4-0.6,0.9-1.1,1.4-1.8
		c1.8,1.6,4.7,2.6,2.1,5.7c-1.6,0-3.3-0.1-4.9-0.1C165.4,45.3,164.8,45.3,164.3,45.3z"/>
	<path class="st3" d="M161.9,48.4c-0.2,5.2-0.5,10.4-0.6,15.6c-0.3,13.3-0.5,26.5-0.8,39.8c-0.2,0-0.4,0-0.5,0
		c-0.5-2-1.3-3.9-1.3-5.9c0-13.5,0.1-26.9,0.3-40.4c0-2.5,0.3-5,0.4-7.5C159.4,48.1,160.6,48.2,161.9,48.4z"/>
	<path class="st3" d="M169.5,48.1c-2.4,0-4.9,0.1-7.3,0.1c2.5-0.2,5-0.5,7.4-0.7C169.6,47.7,169.5,47.9,169.5,48.1z"/>
	<path class="st21" d="M164.3,45.3c0.5,0,1.1,0,1.6,0C165.4,45.3,164.8,45.3,164.3,45.3z"/>
	<path class="st23" d="M171.7,108.8c-0.1,0.1-0.1,0.2-0.2,0.3C171.6,109,171.6,108.9,171.7,108.8L171.7,108.8z"/>
</g>
<g>
	<path class="st6" d="M76,185.8c0.9-4.7,1.9-9.5,2.8-14.2c0.5-2.7,1-5.5,1.2-8.2c0.2-2.3,1.3-3.2,3.5-3.2c7,0.1,14.1,0.2,21.1,0.1
		c2.1,0,2.7,1.2,3.4,2.6c0,0.6,0,1.2,0.1,1.9c-0.1,0.9-0.1,1.8-0.2,2.7c-0.7-1-1.4-2-2.2-2.9c-0.7-0.8-1.5-2.1-2.3-2.1
		c-4.6-0.1-9.3-0.1-13.9,0.1c-2.3,0.1-4.9,0.4-5.7,3.3c-0.5-0.2-1-0.5-1.5-0.7c-0.1-0.1-0.2-0.2-0.3-0.3c0.1,0.1,0.2,0.2,0.3,0.3
		c-0.2,1.2-0.5,2.4-0.7,3.6c0.2,1.2,0.4,2.4,0.7,3.6c-3.4,1.7-3,5.2-3.5,8c-1.1,6-1.8,12.1-2.6,18.2c-0.4,2.9-1.2,5.9,0.7,8.8
		c0.5,0.7,0.2,2.6-0.5,3.3c-2,2.2-1.5,4.3-0.2,6.5c-2.8,1.4-3.7,3.9-4,6.6c-0.6,4.3-1,8.6-1.5,12.9c-0.4,2.9-0.5,5.8-1.1,8.7
		c-0.5,2.4,0.6,3,2.6,3c0,2.1,0,4.2,0,6c2.6-0.3,5.3-0.6,8-0.9c0.2,0.7,0.5,1.4,0.7,2.2c-1.9,0-2.5,0.7-1.6,3c1.2-1.1,2.1-2,3.1-3
		l0.4,0l0.4,0c0.7,2.2,1.3,4.4,2.2,7.4c1.1-1.5,1.6-2.3,2.2-3c-0.5,4.8-1.1,9.7-1.6,14.5c-6.8-1.2-14.3,1.8-20.6-2.9
		c-0.2-0.2-0.7,0-1.1,0c0.4-3.9,0.8-7.8,1.3-11.7c0.1-1.2,0.2-2.4,0.3-3.6c0.2-1,0.3-2,0.5-3c0.1-0.7,0.2-1.4,0.3-2.1
		c0.1-0.8,0.2-1.5,0.3-2.3c0.1-0.5,0.2-0.9,0.3-1.4c0.4-2.7,0.8-5.4,1.2-8.1c0.1-1,0.1-1.9,0.2-2.9c0.6-4.4,1.3-8.8,1.9-13.2
		c0.8-5.8,1.6-11.7,2.4-17.5c0.1-0.7,0.2-1.4,0.3-2.1c0.7-3.9,1.3-7.9,2-11.8c0.1-0.5,0.1-0.9,0.2-1.4c0.2-1,0.3-2,0.5-3
		C75.8,187.2,75.9,186.5,76,185.8z"/>
	<path class="st3" d="M85.8,274.9c0.5-4.8,1.1-9.7,1.6-14.5c0-0.5,0.1-1,0.1-1.5c0.2-1.1,0.4-2.2,0.6-3.3c2.7-0.7,5.3-1.5,8-2.2
		c0,0.6,0,1.3,0,1.9c-1.3,0.2-2.6,0.4-4.4,0.7c0,3.4,0,6.8,0,10.2c-0.4,4.5-0.7,9-1.1,13.4l0,0c-0.3-0.1-0.6-0.2-0.9-0.4
		c-5.8-0.1-11.5-0.2-17.3-0.3c-2.5-0.4-4.9-0.9-7.4-1.3c0-0.3,0-0.7,0-1c5.9-0.1,11.8-0.1,17.6-0.3
		C83.6,276.2,84.7,275.3,85.8,274.9z"/>
	<path class="st7" d="M108.1,164.8c0-0.6,0-1.2-0.1-1.9c2.7,0.8,3.9,2.5,4.2,5.4c3.2,27.5,6.6,54.9,9.9,82.4
		c0.9,7.6,1.5,15.1,2.3,23c-2.1,0.3-3.5,0.5-4.9,0.7c0.7-1.1,1.5-2.2,2.2-3.2c-0.2-1.7-0.5-3.4-0.7-5.1l0,0c0.2-3,0.7-6,0.6-8.9
		c-0.1-1.4-1.2-2.8-1.9-4.3c-0.5-4.7-1-9.5-1.6-14.2c-0.1-0.6-0.8-1.2-1.2-1.8c-0.1-0.5-0.1-1-0.2-1.6c0.2-1.1,0.8-2.3,0.6-3.4
		c-0.3-3.4-1-6.7-1.4-10c-0.6-6.2-0.9-12.5-1.6-18.8c-1.1-9.2-2.3-18.4-3.6-27.6C110.2,171.9,109,168.4,108.1,164.8z"/>
	<path class="st1" d="M96.1,255.2c0-0.6,0-1.3,0-1.9c0-0.1,0-0.2,0.1-0.4c1.7,0.7,3.4,1.5,5.1,2.2c-0.1,1,0.2,2.4-0.3,2.8
		c-1.6,1.3-1.5,2.4-0.4,3.8c0,0,0,0,0,0c0.5,4.1,1,8.3,1.4,12.4c0,0.3,0,0.6-0.1,0.9c-1.9-0.4-2.7-1.2-2.9-3.4
		c-0.5-5.1-1.4-10.2-2.1-15.3C96.8,255.9,96.4,255.6,96.1,255.2z"/>
	<path class="st3" d="M101.9,275.1c0-0.3,0-0.6,0.1-0.9c3.5-0.2,6.9-0.4,10.4-0.8c1.3-0.1,2.4-0.8,3.7-1.3c1.2-0.3,2.3-0.5,3.5-0.8
		c0.5-1,1-2,1.5-3c0.2,1,0.5,1.9,0.7,2.9c-0.7,1.1-1.5,2.2-2.2,3.2c-5.2,0.8-10.4,1.6-15.7,2.2C103.3,276.8,102.6,275.6,101.9,275.1
		z"/>
	<path class="st1" d="M121,268.3c-0.5,1-1,2-1.5,3c-0.2-0.8-0.5-1.5-0.7-2.3c-0.3-1.4-0.6-2.9-0.9-4.3c-0.3-1.4-0.9-2.8-0.9-4.1
		c-0.1-2,0.3-4.1,0.4-6.1c-0.3-2.5-0.6-5-1-7.7c-0.8,0.3-1.5,0.5-1.8,0.6c-2.3-3.3-4.4-6.3-6.7-9.5c-1.8,1.4-3,2.4-4.3,3.4
		c-4.6-3.4-7.1,2-11.5,1.9c1.9,3.5-1.4,4.2-2.5,6.2c-0.7,0-1.4,0-2.2,0.1c-2-0.5-3.9-1.1-6-1.3c-2.2-0.3-4.7-0.8-5.5,1.9
		c0.5,2.6,4.7,0.3,4.1,3.8c-2.7,0.3-5.5,0.6-8,0.9c0-1.8,0-3.9,0-6l0,0c0.9-0.6,2.5-1.1,2.5-1.7c0-3.2-0.4-6.4-0.7-9.8
		c-1.2-0.1-2.3-0.1-3.3-0.2c0,0,0,0,0,0c0.5-4.3,0.9-8.6,1.5-12.9c0.4-2.7,1.2-5.2,4-6.6c-1.3-2.2-1.8-4.3,0.2-6.5
		c0.6-0.7,1-2.6,0.5-3.3c-1.9-2.9-1.1-5.8-0.7-8.8c0.8-6.1,1.5-12.2,2.6-18.2c0.5-2.9,0.1-6.4,3.5-8c0,2.9-0.4,5.8,0.2,8.5
		c0.5,2.9,1.9,5.5,2.8,7.8c-1.7,1.3-3.8,2.1-4,3.2c-0.3,2.5-0.5,5.6,0.7,7.7c1.8,3.4,2.3,6.5,1.2,9.9c3.7,3.3,4.7,7.7,2.6,11.9
		c-0.2,0.5-0.8,0.9-1.3,1.2c-1.6,0.9-3.3,1.6-5,2.4c-2,1-2,2.2-0.3,3.5c0.6,0.4,1.2,0.7,1.9,1c-0.4,0.1-0.8,0.3-1.2,0.4
		c-0.7,1.8-1.3,3.5-2,5.2c1.2,0.8,2.1,1.3,3,1.9c2.5,1.7,6.2,0.8,7.9-2c0.4-0.2,0.9-0.5,1.3-0.7c0.2,0.9,0.4,1.7,0.6,2.7
		c1.1-0.2,2-0.3,2.9-0.5c1.4,0,2.9,0,4.5,0c-0.9-4.2-1.6-7.8-2.4-11.4c-0.1-0.3-1-0.5-1.5-0.7c-0.1-0.3-0.2-0.6-0.4-0.9
		c1.2-1.3,2.5-2.5,4-4.1c-1.6-1.5-3.1-2.9-4.5-4.2c0.7-4.9,5.1-9.1,3-14.8c-1.7,0.3-3.3,0.6-4.9,0.9c-0.8-2.4-2.1-4.6,0.3-5.9
		c-0.6-1.6-1.2-2.9-1.8-4.4c4.7,0,8.5,0,12.4,0c0.5,2.3,1,4.5,1.4,6.6c0.3,0.1,0.7,0.1,1,0.2c0.5-1.2,1-2.4,1.4-3.6
		c0.4-1.3,0.6-2.7,0.8-3.4c-1.1-1.2-2.7-2.2-2.7-3.2c0-1.5,0.7-3.5,1.8-4.3c1.7-1.2,1.4-2.3,1.3-4c-0.2-1.9,0.4-3.8,0.7-5.7
		c0.5,2.7,1.2,5.4,1.5,8.2c1.4,10.7,2.7,21.4,4.1,32.1c0.9,7.1,1.9,14.2,2.9,21.2c0.1,0.5,0.1,1,0.2,1.6c0.7,5.8,1.5,11.6,2.2,17.4
		c0.6,3.9,1.3,7.8,1.9,11.8l0,0C121,266.8,121,267.6,121,268.3z"/>
	<path class="st22" d="M88.8,235.4c-1.7,2.7-5.5,3.6-7.9,2c-0.9-0.6-1.8-1.2-3-1.9c0.6-1.7,1.3-3.5,2-5.2c0.4-0.1,0.8-0.3,1.2-0.4
		c-0.6-0.3-1.3-0.6-1.9-1c-1.8-1.3-1.8-2.5,0.3-3.5c1.7-0.8,3.4-1.6,5-2.4c0.5-0.3,1-0.7,1.3-1.2c2-4.2,1.1-8.5-2.6-11.9
		c1.1-3.4,0.6-6.6-1.2-9.9c-1.1-2.1-1-5.2-0.7-7.7c0.1-1.1,2.3-1.9,4-3.2c-0.8-2.3-2.2-5-2.8-7.8c-0.5-2.8-0.1-5.7-0.2-8.5
		c-0.2-1.2-0.4-2.4-0.7-3.6c0.7-1,1.5-2,2.2-3c0.8-2.9,3.4-3.2,5.7-3.3c4.6-0.2,9.3-0.3,13.9-0.1c0.8,0,1.6,1.3,2.3,2.1
		c0.8,0.9,1.5,1.9,2.2,2.9c0,0.9,0,1.9,0,2.8c0,0.3,0,0.5,0,0.8c0.1,0.9,0.2,1.8,0.3,2.8c-0.3,1.9-0.9,3.9-0.7,5.7
		c0.1,1.7,0.4,2.8-1.3,4c-1.1,0.8-1.8,2.8-1.8,4.3c0,1,1.6,1.9,2.7,3.2c-0.2,0.7-0.4,2.1-0.8,3.4c-0.4,1.2-0.9,2.4-1.4,3.6
		c-0.3-0.1-0.7-0.1-1-0.2c-0.5-2.2-0.9-4.3-1.4-6.6c-3.9,0-7.8,0-12.4,0c0.6,1.5,1.1,2.8,1.8,4.4c-2.5,1.3-1.2,3.5-0.3,5.9
		c1.6-0.3,3.2-0.6,4.9-0.9c2.2,5.6-2.3,9.8-3,14.8c1.4,1.3,2.8,2.7,4.5,4.2c-1.6,1.6-2.8,2.9-4,4.1c-0.3-1.1-0.7-2.1-1-3.2
		c-0.2-0.1-0.5-0.1-0.7-0.2c-0.9,2.1-1.7,4.2-2.6,6.3c-1.5,1.4-3,2.8-4.8,4.5C86.4,232.8,87.6,234.1,88.8,235.4z M87.7,166.3
		c0-0.2,0-0.4,0-0.7c-0.7,0-1.4,0-2.1,0c0,0.2,0,0.4,0,0.7C86.3,166.3,87,166.3,87.7,166.3z"/>
	<path class="st2" d="M108.2,173.9c-0.1-0.9-0.2-1.8-0.3-2.8c0-0.3,0-0.5,0-0.8c0-0.9,0-1.9,0-2.8c0.1-0.9,0.1-1.8,0.2-2.7
		c0.9,3.6,2,7.2,2.6,10.8c1.4,9.2,2.6,18.4,3.6,27.6c0.7,6.2,1,12.5,1.6,18.8c0.3,3.4,1,6.7,1.4,10c0.1,1.1-0.4,2.3-0.6,3.4
		c-1-7.1-2-14.1-2.9-21.2c-1.4-10.7-2.7-21.4-4.1-32.1C109.4,179.3,108.7,176.6,108.2,173.9z"/>
	<path class="st22" d="M80.1,253.7c0.6-3.5-3.6-1.2-4.1-3.8c0.8-2.8,3.3-2.2,5.5-1.9c2,0.2,4,0.9,6,1.3c-0.7,1.5-1.4,2.9-2.1,4.4
		c-1.6-0.1-2.4,0.5-2.3,2.2l-0.4,0l-0.4,0c-0.5,0-1,0-1.5,0C80.5,255.2,80.3,254.4,80.1,253.7z"/>
	<path class="st9" d="M64.9,276.5c-2.7-1.1-1.3-2.9-0.8-4.5c0.4,0,0.8-0.2,1.1,0c6.4,4.7,13.8,1.6,20.6,2.9
		c-1.1,0.5-2.2,1.3-3.3,1.3C76.6,276.4,70.7,276.4,64.9,276.5z"/>
	<path class="st1" d="M83,255.9c-0.2-1.7,0.7-2.3,2.3-2.2c0.7,0.5,1.4,1,2.1,1.5c0,1.2,0.1,2.4,0.1,3.6c0,0.5-0.1,1-0.1,1.5
		c-0.5,0.7-1,1.4-2.2,3C84.3,260.3,83.7,258.1,83,255.9z"/>
	<path class="st1" d="M80.8,255.9c0.5,0,1,0,1.5,0c-1,0.9-1.9,1.8-3.1,3C78.2,256.6,78.9,255.8,80.8,255.9z"/>
	<path class="st1" d="M83.8,165.9c-0.7,1-1.5,2-2.2,3c0.2-1.2,0.5-2.4,0.7-3.6l0,0C82.8,165.5,83.3,165.7,83.8,165.9z"/>
	<path class="st22" d="M82.3,165.3c-0.1-0.1-0.2-0.2-0.3-0.3C82.1,165,82.2,165.1,82.3,165.3L82.3,165.3z"/>
	<path class="st25" d="M87.4,255.2c-0.7-0.5-1.4-1-2.1-1.5c0.7-1.5,1.4-2.9,2.1-4.4c0.7,0,1.4,0,2.2-0.1c-0.2,0.8-0.4,1.7-0.8,3.2
		c2.4-0.5,4.2-0.8,6-1.1c0.5,0.3,0.9,0.6,1.4,1c0,0.2,0,0.4,0,0.7c-0.1,0.1-0.1,0.2-0.1,0.4c-2.7,0.7-5.3,1.5-8,2.2
		C87.9,255.4,87.6,255.3,87.4,255.2z"/>
	<path class="st6" d="M87.4,255.2c0.2,0.1,0.5,0.2,0.7,0.3c-0.2,1.1-0.4,2.2-0.6,3.3C87.5,257.6,87.4,256.4,87.4,255.2z"/>
	<path class="st3" d="M121,266.1c-0.6-3.9-1.3-7.8-1.9-11.8c0.2-0.5,0.4-1,0.6-1.4c0.7,1.4,1.8,2.8,1.9,4.3
		C121.7,260.1,121.2,263.1,121,266.1z"/>
	<path class="st2" d="M119.7,252.9c-0.2,0.5-0.4,1-0.6,1.4c-0.7-5.8-1.5-11.6-2.2-17.4c0.4,0.6,1.1,1.2,1.2,1.8
		C118.7,243.5,119.2,248.2,119.7,252.9z"/>
	<path class="st2" d="M121,268.3c0-0.7,0-1.5,0-2.2c0.2,1.7,0.5,3.4,0.7,5.1C121.5,270.2,121.2,269.3,121,268.3z"/>
	<path class="st23" d="M117.3,254.5c-0.2,2-0.5,4.1-0.4,6.1c0,1.4,0.6,2.8,0.9,4.1c0.3,1.4,0.6,2.9,0.9,4.3
		c-2.4,0.4-4.8,0.9-7.3,1.3c0,0.4,0.1,0.8,0.1,1.2c1.5,0.2,2.9,0.3,4.4,0.5c-1.2,0.4-2.4,1.2-3.7,1.3c-3.5,0.4-6.9,0.5-10.4,0.8
		c-0.5-4.1-1-8.3-1.4-12.4c0.4-0.2,0.8-0.4,1.2-0.5c-0.2-0.4-0.4-0.8-1-2c-0.1,1.4-0.1,2-0.2,2.5c-1.1-1.4-1.2-2.5,0.4-3.8
		c0.5-0.4,0.2-1.8,0.3-2.8c0.6-1.6,3.7-3.4,5.3-2.5c3.3,1.9,5.9,1.6,7.6-0.9C115.3,252.7,116.3,253.6,117.3,254.5z"/>
	<path class="st22" d="M117.3,254.5c-1-0.9-2-1.7-3.2-2.7c-1.7,2.5-4.3,2.8-7.6,0.9c-1.6-0.9-4.7,0.9-5.3,2.5
		c-1.7-0.7-3.4-1.5-5.1-2.2c0-0.2,0-0.4,0-0.7c-0.1-1.1-0.2-2.2-0.3-3.3c-0.3,0-0.6,0-0.8,0.1c-0.1,0.8-0.2,1.5-0.3,2.3
		c-1.8,0.3-3.6,0.7-6,1.1c0.4-1.5,0.6-2.4,0.8-3.2c1.1-1.9,4.4-2.6,2.5-6.2c4.3,0.1,6.9-5.3,11.5-1.9c1.2-1,2.4-1.9,4.3-3.4
		c2.3,3.2,4.4,6.3,6.7,9.5c0.3-0.1,1-0.3,1.8-0.6C116.7,249.5,117,252,117.3,254.5z M99.3,249.1c0.2,0.3,0.4,0.7,0.6,1
		c0.7-0.4,1.3-0.9,2-1.3c-0.2-0.3-0.3-0.5-0.5-0.8C100.7,248.4,100,248.7,99.3,249.1z"/>
	<path class="st19" d="M116.1,272.1c-1.5-0.2-2.9-0.3-4.4-0.5c0-0.4-0.1-0.8-0.1-1.2c2.4-0.4,4.8-0.9,7.3-1.3
		c0.2,0.8,0.5,1.5,0.7,2.3C118.4,271.6,117.2,271.8,116.1,272.1z"/>
	<path class="st26" d="M94.4,226c-0.3,3.6-0.5,7.2-0.8,10.9c-0.9,0.1-1.8,0.3-2.9,0.5c-0.2-0.9-0.4-1.8-0.6-2.7
		c0.5-2-2.2-4.1,0.1-6.1c0.5-0.4,0.9-0.9,1.4-1.2C92.6,226.9,93.5,226.4,94.4,226z"/>
	<path class="st5" d="M68.7,251.3c-0.5-3.9,1.8-15.4,1.8-15.4s2.1,0.1,3.3,0.2c0.3,3.4,0.7,8.8,0.7,12
		C74.6,248.6,69.6,250.7,68.7,251.3z"/>
	<path class="st5" d="M90.3,228.6c-2.3,2,0.3,4.1-0.1,6.1c-0.4,0.2-0.9,0.5-1.3,0.7c-1.2-1.3-2.5-2.5-4.1-4.2
		c1.8-1.7,3.3-3.1,4.8-4.5C89.8,227.3,90,227.9,90.3,228.6z"/>
	<path class="st27" d="M90.3,228.6c-0.3-0.6-0.5-1.3-0.8-1.9c0.9-2.1,1.7-4.2,2.6-6.3c0.2,0.1,0.5,0.1,0.7,0.2
		c0.3,1.1,0.7,2.1,1,3.2c0.1,0.3,0.2,0.6,0.4,0.9c0,0.4,0.1,0.9,0.1,1.3c-0.9,0.5-1.8,0.9-2.6,1.4C91.2,227.7,90.8,228.2,90.3,228.6
		z"/>
	<ellipse class="st6" cx="86.7" cy="166" rx="1.5" ry="0.5"/>
	<path class="st1" d="M107.9,170.3c0,0.3,0,0.5,0,0.8C108,170.9,107.9,170.6,107.9,170.3z"/>
	<path class="st1" d="M94.7,251.3c0.1-0.8,0.2-1.5,0.3-2.3c0.3,0,0.6,0,0.8-0.1c0.1,1.1,0.2,2.2,0.3,3.3
		C95.7,252,95.2,251.6,94.7,251.3z"/>
	<path class="st1" d="M100.6,261.7c0-0.5,0.1-1.1,0.2-2.5c0.6,1.2,0.8,1.6,1,2C101.3,261.4,100.9,261.5,100.6,261.7L100.6,261.7z"/>
	<path class="st1" d="M99.3,249.1c0.7-0.4,1.4-0.7,2.1-1.1c0.2,0.3,0.3,0.5,0.5,0.8c-0.7,0.4-1.3,0.9-2,1.3
		C99.7,249.8,99.5,249.5,99.3,249.1z"/>
</g>
<g>
	<path class="st6" d="M180.9,253.9c-0.9,4.7-1.9,9.5-2.8,14.2c-0.5,2.7-1,5.5-1.2,8.2c-0.2,2.3-1.3,3.2-3.5,3.2
		c-7-0.1-14.1-0.2-21.1-0.1c-2.1,0-2.7-1.2-3.4-2.6c0-0.6,0-1.2-0.1-1.9c0.1-0.9,0.1-1.8,0.2-2.7c0.7,1,1.4,2,2.2,2.9
		c0.7,0.8,1.5,2.1,2.3,2.1c4.6,0.1,9.3,0.1,13.9-0.1c2.3-0.1,4.9-0.4,5.7-3.3c0.5,0.2,1,0.5,1.5,0.7c0.1,0.1,0.2,0.2,0.3,0.3
		c-0.1-0.1-0.2-0.2-0.3-0.3c0.2-1.2,0.5-2.4,0.7-3.6c-0.2-1.2-0.4-2.4-0.7-3.6c3.4-1.7,3-5.2,3.5-8c1.1-6,1.8-12.1,2.6-18.2
		c0.4-2.9,1.2-5.9-0.7-8.8c-0.5-0.7-0.2-2.6,0.5-3.3c2-2.2,1.5-4.3,0.2-6.5c2.8-1.4,3.7-3.9,4-6.6c0.6-4.3,1-8.6,1.5-12.9
		c0.4-2.9,0.5-5.8,1.1-8.7c0.5-2.4-0.6-3-2.6-3c0-2.1,0-4.2,0-6c-2.6,0.3-5.3,0.6-8,0.9c-0.2-0.7-0.5-1.4-0.7-2.2
		c1.9,0,2.5-0.7,1.6-3c-1.2,1.1-2.1,2-3.1,3l-0.4,0l-0.4,0c-0.7-2.2-1.3-4.4-2.2-7.4c-1.1,1.5-1.6,2.3-2.2,3
		c0.5-4.8,1.1-9.7,1.6-14.5c6.8,1.2,14.3-1.8,20.6,2.9c0.2,0.2,0.7,0,1.1,0c-0.4,3.9-0.8,7.8-1.3,11.7c-0.1,1.2-0.2,2.4-0.3,3.6
		c-0.2,1-0.3,2-0.5,3c-0.1,0.7-0.2,1.4-0.3,2.1c-0.1,0.8-0.2,1.5-0.3,2.3c-0.1,0.5-0.2,0.9-0.3,1.4c-0.4,2.7-0.8,5.4-1.2,8.1
		c-0.1,1-0.1,1.9-0.2,2.9c-0.6,4.4-1.3,8.8-1.9,13.2c-0.8,5.8-1.6,11.7-2.4,17.5c-0.1,0.7-0.2,1.4-0.3,2.1c-0.7,3.9-1.3,7.9-2,11.8
		c-0.1,0.5-0.1,0.9-0.2,1.4c-0.2,1-0.3,2-0.5,3C181.1,252.5,181,253.2,180.9,253.9z"/>
	<path class="st3" d="M165.3,183.8c0-3.4,0-6.8,0-10.2c0.4-4.5,0.7-9,1.1-13.4l0,0c0.3,0.1,0.6,0.2,0.9,0.4
		c5.8,0.1,11.5,0.2,17.3,0.3c2.5,0.4,4.9,0.9,7.4,1.3c0,0.3,0,0.7,0,1c-5.9,0.1-11.8,0.1-17.6,0.3c-1.1,0-2.2,0.9-3.3,1.3
		c-0.5,4.8-1.1,9.7-1.6,14.5c0,0.5-0.1,1-0.1,1.5c-0.2,1.1-0.4,2.2-0.6,3.3"/>
	<path class="st7" d="M148.8,274.9c0,0.6,0,1.2,0.1,1.9c-2.7-0.8-3.9-2.5-4.2-5.4c-3.2-27.5-6.6-54.9-9.9-82.4
		c-0.9-7.6-1.5-15.1-2.3-23c2.1-0.3,3.5-0.5,4.9-0.7c-0.7,1.1-1.5,2.2-2.2,3.2c0.2,1.7,0.5,3.4,0.7,5.1l0,0c-0.2,3-0.7,6-0.6,8.9
		c0.1,1.4,1.2,2.8,1.9,4.3c0.5,4.7,1,9.5,1.6,14.2c0.1,0.6,0.8,1.2,1.2,1.8c0.1,0.5,0.1,1,0.2,1.6c-0.2,1.1-0.8,2.3-0.6,3.4
		c0.3,3.4,1,6.7,1.4,10c0.6,6.2,0.9,12.5,1.6,18.8c1.1,9.2,2.3,18.4,3.6,27.6C146.8,267.8,147.9,271.3,148.8,274.9z"/>
	<path class="st1" d="M159.1,187.9c0,0-2.4-1.5-4.1-2.2c0.1-1,1.8-5.2,0.7-6.6c0,0,0,0,0,0c-0.5-4.1-1-8.3-1.4-12.4
		c0-0.3,0-0.6,0.1-0.9c1.9,0.4,2.7,1.2,2.9,3.4C157.6,174.2,159.1,187.9,159.1,187.9z"/>
	<path class="st3" d="M155,164.6c0,0.3,0,0.6-0.1,0.9c-3.5,0.2-6.9,0.4-10.4,0.8c-1.3,0.1-2.4,0.8-3.7,1.3c-1.2,0.3-2.3,0.5-3.5,0.8
		c-0.5,1-1,2-1.5,3c-0.2-1-0.5-1.9-0.7-2.9c0.7-1.1,1.5-2.2,2.2-3.2c5.2-0.8,10.4-1.6,15.7-2.2C153.6,162.9,154.3,164.1,155,164.6z"
		/>
	<path class="st1" d="M166.2,202.4c0.2,0.9,0.4,1.8,0.6,2.7c0.4-0.2,0.9-0.5,1.3-0.7c1.7-2.7,5.5-3.6,7.9-2c0.9,0.6,1.8,1.2,3,1.9
		c-0.6,1.7-1.3,3.5-2,5.2c-0.4,0.1-0.8,0.3-1.2,0.4c0.6,0.3,1.3,0.6,1.9,1c1.8,1.3,1.8,2.5-0.3,3.5c-1.7,0.8-3.4,1.6-5,2.4
		c-0.5,0.3-1,0.7-1.3,1.2c-2,4.2-1.1,8.5,2.6,11.9c-1.1,3.4-0.6,6.6,1.2,9.9c1.1,2.1,1,5.2,0.7,7.7c-0.1,1.1-2.3,1.9-4,3.2
		c0.8,2.3,2.2,5,2.8,7.8c0.5,2.8,0.1,5.7,0.2,8.5c3.4-1.7,3-5.2,3.5-8c1.1-6,1.8-12.1,2.6-18.2c0.4-2.9,1.2-5.9-0.7-8.8
		c-0.5-0.7-0.2-2.6,0.5-3.3c2-2.2,1.5-4.3,0.2-6.5c2.8-1.4,3.7-3.9,4-6.6c0.6-4.3,1-8.6,1.5-12.9c0,0,0,0,0,0
		c-1.1-0.1-2.1-0.1-3.3-0.2c-0.3-3.4-0.7-6.6-0.7-9.8c0-0.6,1.7-1.1,2.5-1.7l0,0c0-2.1,0-4.2,0-6c-2.6,0.3-5.3,0.6-8,0.9
		c-0.6,3.5,3.6,1.2,4.1,3.8c-0.8,2.8-3.3,2.2-5.5,1.9c-2-0.2-5.9-0.6-7.9-1.1L166.2,202.4z"/>
	<path class="st1" d="M159.1,186c0.9,4.2,3.1,26.4,4,30c0.1,0.3-2.5,2.5-4,4.1c1.6,1.5,3.1,2.9,4.5,4.2c-0.7,4.9-5.1,9.1-3,14.8
		c1.7-0.3,3.3-0.6,4.9-0.9c0.8,2.4,2.1,4.6-0.3,5.9c0.6,1.6,1.2,2.9,1.8,4.4c-4.7,0-8.5,0-12.4,0c-0.5-2.3-1-4.5-1.4-6.6
		c-0.3-0.1-0.7-0.1-1-0.2c-0.5,1.2-1,2.4-1.4,3.6c-0.4,1.3-0.6,2.7-0.8,3.4c1.1,1.2,2.7,2.2,2.7,3.2c0,1.5-0.7,3.5-1.8,4.3
		c-1.7,1.2-1.4,2.3-1.3,4c0.2,1.9-0.4,3.8-0.7,5.7c-0.5-2.7-1.2-5.4-1.5-8.2c-1.4-10.7-2.7-21.4-4.1-32.1
		c-0.9-7.1-1.9-14.2-2.9-21.2c-0.1-0.5-0.1-1-0.2-1.6c-0.7-5.8-1.5-11.6-2.2-17.4c-0.6-3.9-1.3-7.8-1.9-11.8l0,0c0-0.7,0-1.5,0-2.2
		c0.5-1,1-2,1.5-3c0.2,0.8,0.5,1.5,0.7,2.3c0.3,1.4,0.6,2.9,0.9,4.3c0.3,1.4,0.9,2.8,0.9,4.1c0.1,2-0.3,4.1-0.4,6.1
		c0.3,2.5,0.6,5,1,7.7c0.8-0.3,1.5-0.5,1.8-0.6c2.3,3.3,4.4,6.3,6.7,9.5c1.8-1.4,3-2.4,4.3-3.4"/>
	<path class="st22" d="M168.1,204.3c1.7-2.7,5.5-3.6,7.9-2c0.9,0.6,1.8,1.2,3,1.9c-0.6,1.7-1.3,3.5-2,5.2c-0.4,0.1-0.8,0.3-1.2,0.4
		c0.6,0.3,1.3,0.6,1.9,1c1.8,1.3,1.8,2.5-0.3,3.5c-1.7,0.8-3.4,1.6-5,2.4c-0.5,0.3-1,0.7-1.3,1.2c-2,4.2-1.1,8.5,2.6,11.9
		c-1.1,3.4-0.6,6.6,1.2,9.9c1.1,2.1,1,5.2,0.7,7.7c-0.1,1.1-2.3,1.9-4,3.2c0.8,2.3,2.2,5,2.8,7.8c0.5,2.8,0.1,5.7,0.2,8.5
		c0.2,1.2,0.4,2.4,0.7,3.6c-0.7,1-1.5,2-2.2,3c-0.8,2.9-3.4,3.2-5.7,3.3c-4.6,0.2-9.3,0.3-13.9,0.1c-0.8,0-1.6-1.3-2.3-2.1
		c-0.8-0.9-1.5-1.9-2.2-2.9c0-0.9,0-1.9,0-2.8c0-0.3,0-0.5,0-0.8c-0.1-0.9-0.2-1.8-0.3-2.8c0.3-1.9,0.9-3.9,0.7-5.7
		c-0.1-1.7-0.4-2.8,1.3-4c1.1-0.8,1.8-2.8,1.8-4.3c0-1-1.6-1.9-2.7-3.2c0.2-0.7,0.4-2.1,0.8-3.4c0.4-1.2,0.9-2.4,1.4-3.6
		c0.3,0.1,0.7,0.1,1,0.2c0.5,2.2,0.9,4.3,1.4,6.6c3.9,0,7.8,0,12.4,0c-0.6-1.5-1.1-2.8-1.8-4.4c2.5-1.3,1.2-3.5,0.3-5.9
		c-1.6,0.3-3.2,0.6-4.9,0.9c-2.2-5.6,2.3-9.8,3-14.8c-1.4-1.3-2.8-2.7-4.5-4.2c1.6-1.6,2.8-2.9,4-4.1c0.3,1.1,0.7,2.1,1,3.2
		c0.2,0.1,0.5,0.1,0.7,0.2c0.9-2.1,1.7-4.2,2.6-6.3c1.5-1.4,3-2.8,4.8-4.5C170.6,206.9,169.3,205.6,168.1,204.3z M169.2,273.4
		c0,0.2,0,0.4,0,0.7c0.7,0,1.4,0,2.1,0c0-0.2,0-0.4,0-0.7C170.6,273.4,169.9,273.4,169.2,273.4z"/>
	<path class="st2" d="M148.7,265.8c0.1,0.9,0.2,1.8,0.3,2.8c0,0.3,0,0.5,0,0.8c0,0.9,0,1.9,0,2.8c-0.1,0.9-0.1,1.8-0.2,2.7
		c-0.9-3.6-2-7.2-2.6-10.8c-1.4-9.2-2.6-18.4-3.6-27.6c-0.7-6.2-1-12.5-1.6-18.8c-0.3-3.4-1-6.7-1.4-10c-0.1-1.1,0.4-2.3,0.6-3.4
		c1,7.1,2,14.1,2.9,21.2c1.4,10.7,2.7,21.4,4.1,32.1C147.5,260.4,148.2,263.1,148.7,265.8z"/>
	<path class="st22" d="M176.9,186c-0.6,3.5,3.6,1.2,4.1,3.8c-0.8,2.8-3.3,2.2-5.5,1.9c-2-0.2-8.1,0-8.1,0s0.7-6,1.4-7.5
		c1.6,0.1,5.3,1.3,5.1-0.4l0.4,0l0.4,0c0.5,0,1,0,1.5,0C176.4,184.5,176.6,185.3,176.9,186z"/>
	<path class="st9" d="M192.1,163.2c2.7,1.1,1.3,2.9,0.8,4.5c-0.4,0-0.8,0.2-1.1,0c-6.4-4.7-13.8-1.6-20.6-2.9
		c1.1-0.5,2.2-1.3,3.3-1.3C180.3,163.3,186.2,163.3,192.1,163.2z"/>
	<path class="st1" d="M173.9,183.8c0.2,1.7-0.7,2.3-2.3,2.2c-0.7-0.5-1.4-1-2.1-1.5c0-1.2-0.1-2.4-0.1-3.6c0-0.5,0.1-1,0.1-1.5
		c0.5-0.7,1-1.4,2.2-3C172.6,179.4,173.2,181.6,173.9,183.8z"/>
	<path class="st1" d="M176.1,183.8c-0.5,0-1,0-1.5,0c1-0.9,1.9-1.8,3.1-3C178.7,183.1,178,183.9,176.1,183.8z"/>
	<path class="st1" d="M173.1,273.8c0.7-1,1.5-2,2.2-3c-0.2,1.2-0.5,2.4-0.7,3.6l0,0C174.1,274.2,173.6,274,173.1,273.8z"/>
	<path class="st22" d="M174.7,274.4c0.1,0.1,0.2,0.2,0.3,0.3C174.8,274.7,174.7,274.6,174.7,274.4L174.7,274.4z"/>
	<path class="st6" d="M169.5,184.5c-0.2-0.1-0.5-0.2-0.7-0.3c0.2-1.1,0.4-2.2,0.6-3.3C169.5,182.1,169.5,183.3,169.5,184.5z"/>
	<path class="st3" d="M135.9,173.6c0.6,3.9,1.3,7.8,1.9,11.8c-0.2,0.5-0.4,1-0.6,1.4c-0.7-1.4-1.8-2.8-1.9-4.3
		C135.2,179.6,135.7,176.6,135.9,173.6z"/>
	<path class="st2" d="M137.2,186.8c0.2-0.5,0.4-1,0.6-1.4c0.7,5.8,1.5,11.6,2.2,17.4c-0.4-0.6-1.1-1.2-1.2-1.8
		C138.2,196.2,137.7,191.5,137.2,186.8z"/>
	<path class="st2" d="M135.9,171.4c0,0.7,0,1.5,0,2.2c-0.2-1.7-0.5-3.4-0.7-5.1C135.4,169.5,135.7,170.4,135.9,171.4z"/>
	<path class="st23" d="M139.6,185.2c0.2-2,0.5-4.1,0.4-6.1c0-1.4-0.6-2.8-0.9-4.1c-0.3-1.4-0.6-2.9-0.9-4.3c2.4-0.4,4.8-0.9,7.3-1.3
		c0-0.4-0.1-0.8-0.1-1.2c-1.5-0.2-2.9-0.3-4.4-0.5c1.2-0.4,2.4-1.2,3.7-1.3c3.5-0.4,6.9-0.5,10.4-0.8c0.5,4.1,1,8.3,1.4,12.4
		c-0.4,0.2-0.8,0.4-1.2,0.5c0.2,0.4,0.4,0.8,1,2c0.1-1.4,0.1-2,0.2-2.5c0.6,1.9-0.7,4.4-0.4,3.8c-0.5,0.4-0.2,1.8-0.3,2.8
		c-0.6,1.6-3.7,3.4-5.3,2.5c-3.3-1.9-5.9-1.6-7.6,0.9C141.6,187,140.6,186.1,139.6,185.2z"/>
	<path class="st22" d="M139.6,185.2c1,0.9,2,1.7,3.2,2.7c1.7-2.5,4.3-2.8,7.6-0.9c1.6,0.9,4.7-0.9,5.3-2.5c1.7,0.7,1.7,0.7,3.4,1.5
		c0,0.2-1.2,15.9-5.7,12.5c-1.2,1-2.4,1.9-4.3,3.4c-2.3-3.2-4.4-6.3-6.7-9.5c-0.3,0.1-1,0.3-1.8,0.6
		C140.2,190.2,139.9,187.7,139.6,185.2z"/>
	<path class="st19" d="M140.9,167.6c1.5,0.2,2.9,0.3,4.4,0.5c0,0.4,0.1,0.8,0.1,1.2c-2.4,0.4-4.8,0.9-7.3,1.3
		c-0.2-0.8-0.5-1.5-0.7-2.3C138.6,168.1,139.7,167.9,140.9,167.6z"/>
	<path class="st26" d="M162.6,213.7c0.2-2.2,2.7-29.9,2.7-29.9l3.6,0.4c0.2,0.9-2.1,20.8-2.1,20.8s2.2,4.1-0.1,6.1
		c-0.5,0.4-0.9,0.9-1.4,1.2C164.3,212.8,163.4,213.3,162.6,213.7z"/>
	<path class="st5" d="M188.2,188.4c0.5,3.9-1.8,15.4-1.8,15.4s-2.1-0.1-3.3-0.2c-0.3-3.4-0.7-8.8-0.7-12
		C182.3,191.1,187.3,189,188.2,188.4z"/>
	<path class="st5" d="M166.6,211.1c2.3-2-0.3-4.1,0.1-6.1c0.4-0.2,0.9-0.5,1.3-0.7c1.2,1.3,2.5,2.5,4.1,4.2
		c-1.8,1.7-3.3,3.1-4.8,4.5C167.1,212.4,166.9,211.8,166.6,211.1z"/>
	<path class="st27" d="M166.6,211.1c0.3,0.6,0.5,1.3,0.8,1.9c-0.9,2.1-1.7,4.2-2.6,6.3c-0.2-0.1-0.5-0.1-0.7-0.2
		c-0.3-1.1-0.7-2.1-1-3.2c-0.1-0.3-0.5-1.8-0.5-2.3c0.9-0.5,1.8-0.9,2.6-1.4C165.7,212,166.1,211.5,166.6,211.1z"/>
	<ellipse class="st6" cx="170.2" cy="273.7" rx="1.5" ry="0.5"/>
	<path class="st1" d="M149,269.4c0-0.3,0-0.5,0-0.8C149,268.8,149,269.1,149,269.4z"/>
	<path class="st1" d="M156.4,178c0,0.5-0.1,1.1-0.2,2.5c-0.6-1.2-0.8-1.6-1-2C155.6,178.3,156,178.1,156.4,178L156.4,178z"/>
	<path class="st1" d="M157.6,190.6c-0.7,0.4-1.4,0.7-2.1,1.1c-0.2-0.3-0.3-0.5-0.5-0.8c0.7-0.4,1.3-0.9,2-1.3
		C157.2,189.9,157.4,190.2,157.6,190.6z"/>
</g>
<g>
	<path class="st2" d="M220.9,281c-1.8-0.1-3.6-0.3-5.3-0.1c-2.2,0.3-4.2,0-5.9-1.4c-0.2-0.4-0.3-0.8-0.5-1.2
		c3.6-0.1,7.3-0.1,10.9-0.3c11.9-0.8,23.8-1.7,35.8-2.6c-0.5,0.4-0.9,1.2-1.4,1.2c-4.8,0.6-9.6,0.9-14.3,1.6c-2.6,0.4-5.5-0.5-7.5,2
		c-2,0.2-3.9,0.4-5.9,0.7c-0.9,0.1-1.9,0.2-2.8,0.3C222.8,281.1,221.9,281.1,220.9,281z"/>
	<path class="st7" d="M232.6,280.2c2-2.5,5-1.6,7.5-2c4.7-0.7,9.5-1,14.3-1.6c0.5-0.1,1-0.8,1.4-1.2c0.3-1.2,0.8-2.5,0.8-3.7
		c0.1-5.7,0-11.5,0-17.2c0-0.1,0.1-0.3,0.2-0.4c0.7,2.2,1.9,4.5,2,6.7c0.3,5.9,0.1,11.8,0.1,18.1c-3.5,0.2-7.2,0.4-10.9,0.6
		c-2.5,0.1-4.9,0.1-7.4,0.2c-0.6,0.3-1.1,0.7-1.7,1c0,0-0.1,0-0.1,0c-0.4,0-0.9-0.1-1.3-0.1c-1.5,0.1-3,0.2-4.5,0.3
		C232.9,280.6,232.7,280.4,232.6,280.2z"/>
	<path class="st2" d="M253.9,231.4c-1.4,0.3-2.8,0.4-4.2,0.8c-0.9,0.3-1.7,0.9-2.6,1.3c-1,0-1.9,0.1-2.9,0.1
		c-2.9-0.1-5.9-0.1-8.8-0.2c-0.2,1-0.4,2.1-0.6,3.1l-0.3-0.1c-0.6-0.2-1.3-0.5-1.9-0.7c-0.1-1.2-0.1-2.3-0.2-3.5
		c1.3-0.3,2.7-0.7,4-1c0.6,0,1.2,0,1.9,0c2,0,4,0,6,0c1.4,0,2.9-0.1,4.3-0.1C250.4,231.1,252.2,231.3,253.9,231.4z"/>
	<path class="st26" d="M232.7,235.7c0.6,0.2,1.3,0.5,1.9,0.7c0.1,1.2,0.2,2.5,0.3,3.7c0.1,4.1,0.2,8.3,0.4,12.4
		c-0.1,0.2-0.2,0.4-0.3,0.7c-0.7,0-1.4,0.1-2.1,0.1c-0.1-0.3-0.2-0.6-0.3-0.9C232.6,246.9,232.6,241.3,232.7,235.7z"/>
	<path class="st9" d="M207.7,269.4c0.2-1.3,0.5-2.6,0.5-3.9c0.1-17.8,0.2-35.7,0.4-53.5c0.1-7.5,0.3-15,0.4-22.5
		c0-0.7,0.3-1.4,0.5-2.1c0.4,1.3,1.1,2.6,1.1,3.9c-0.1,11.2-0.5,22.5-0.6,33.7c0,1.4,0.7,2.9,1.2,4.4c-0.4,1.7-1.1,3.5-1.2,5.3
		c-0.2,5.7-0.1,11.4,0,17.1c0,7.6-0.1,15.2,0,22.8c0,0.8-1,2.8,1.5,2.1c4.1-0.2,8.1-0.4,12.2-0.7c5.4-0.4,10.8-1,16.2-1.5
		c3-0.3,6-0.4,9-0.8c0.9-0.1,2.2-0.7,2.4-1.3c0.8-2.5,1.3-5.1,1.7-7.6c0.2-1.4,0-2.9,0-5.1c-0.9-0.8-2.9-2.1-0.1-3.9
		c-6.6-0.4-13.1-0.7-19.6-1.1c-0.2-0.5-0.3-1-0.5-1.5c0.7,0,1.4-0.1,2.1-0.1c0.7,0.1,1.4,0.2,2.1,0.2c0.4,0,0.9,0,1.3,0.1
		c4.2,0,8.4-0.1,12.5,0.1c1.9,0.1,3.8,0.6,5.8,0.9c0,5.7,0.1,11.5,0,17.2c0,1.2-0.5,2.5-0.8,3.7c-11.9,0.9-23.8,1.8-35.8,2.6
		c-3.6,0.2-7.3,0.2-10.9,0.3c-0.5-1-1-2-1.5-3.1C207.7,273.3,207.7,271.4,207.7,269.4z"/>
	<path class="st2" d="M255.2,184.7c-0.5,0.4-1,0.9-1.4,1.3c-0.6,0.6-1.1,1.3-1.6,1.9c-1,0.1-1.9,0.1-2.9,0.2
		c-2.5-0.7-5.1-1.8-7.3,0.7l0.1,0.2c-0.7,0-1.5,0-2.2,0c-1.4-0.5-2.9-0.9-4.3-1.4c-0.4,0-0.9,0-1.3-0.1c-0.5,0-1,0-1.4-0.1
		c-0.1-0.8-0.2-1.7-0.3-2.5c2.5,0.1,5,0.3,7.5,0.3C245.1,185.2,250.2,185,255.2,184.7z"/>
	<path class="st3" d="M242.1,188.9c2.2-2.5,4.8-1.4,7.3-0.7c-1,0.3-1.9,0.6-2.9,0.9c-0.7,0-1.5,0-2.2,0
		C243.5,189,242.8,189,242.1,188.9z"/>
	<path class="st28" d="M240.6,279.7c-0.6,0.3-1.1,0.7-1.7,1C239.5,280.3,240.1,280,240.6,279.7z"/>
	<path class="st9" d="M255.2,184.7c-5.1,0.2-10.2,0.5-15.3,0.6c-2.5,0.1-5-0.2-7.5-0.3c-0.4-0.1-0.8-0.2-1.3-0.4c1-0.5,2-1,2.9-1.5
		c0.7-0.3,1.5-0.5,2.2-0.8c0.4,0,0.8,0,1.3,0c4.8,0.3,9.5,0.6,14.8,1c0-6.2,0-11.4,0-17c-4.7-0.3-9.6-0.7-14.6-0.9
		c-1,0-2.1,0.4-3.2,0.7c-0.5,0-0.9,0-1.4,0c-4.2,0-8.3,0-12.5,0c-1.2,0-2.4,0-3.7,0c-2.4,0-4.7,0-7.1,0c0,5.9,0,11.1,0,16.3
		c0,0.7-0.4,1.4-0.6,2.1c-0.3-1.4-0.8-2.7-0.9-4.1c-0.2-4.3-0.3-8.7-0.2-13c0-1.4,0.6-2.7,0.9-4.1c2.7-0.1,5.3-0.1,8-0.2
		c1,0,2,0,3,0c4.6,0,9.2,0,13.9,0c3.7,0,7.3-0.1,11-0.1c2.4,0,4.8,0,7.3,0c0.9,0.1,1.9,0.3,2.8,0.4c0.3,1,0.6,1.9,0.9,2.9
		c0,4.8,0,9.7-0.1,14.5C256,182.2,255.5,183.5,255.2,184.7z"/>
	<path class="st9" d="M234.1,207.9c6,0.3,12,0.6,18.1,0.8c1.8,0.1,3.4,0.2,4,2.3c0,5.8-0.1,11.6-0.1,17.4c0,1.5,0.1,3.1-2.1,3
		c-1.8-0.1-3.5-0.3-5.3-0.3c-1.4,0-2.9,0-4.3,0.1c0.2-0.4,0.5-0.8,0.7-1.2c1.7-0.2,3.4-0.5,5.1-0.7c3.2-0.7,3.9-1.6,3.6-4.5
		c-0.2-2.2,0.1-4.4-0.2-6.6c-0.3-2.4-1-4.7-1.7-7.1c-0.1-0.4-1-0.8-1.5-0.7c-5.9,0.2-11.8,0.4-17.7,0.6l0,0c0-1,0-1.9,0-2.9
		C233.1,208,233.6,207.9,234.1,207.9z"/>
	<path class="st22" d="M232.7,235.7c-0.1,5.6-0.1,11.1-0.2,16.7c-1.7,0.2-3.6,0.3-3.5-2c0.2-5.9-2.5-12.4,2.8-17.6
		c0.1-0.1,0.1-0.5,0.1-0.7c0.2,0,0.4,0,0.6,0.1C232.5,233.4,232.6,234.6,232.7,235.7z"/>
	<path class="st23" d="M245,229.9c-0.2,0.4-0.5,0.8-0.7,1.2c-2,0-4,0-6,0c-0.2-0.2-0.4-0.4-0.6-0.5c-0.3-0.7-0.5-1.4-0.8-2.2
		c1.9,0,3.8-0.1,5.7,0.1C243.5,228.6,244.2,229.4,245,229.9z"/>
	<path class="st25" d="M237,228.5c0.3,0.7,0.5,1.4,0.8,2.2c-0.4,0.2-0.8,0.4-1.3,0.6c-1.3,0.3-2.7,0.7-4,1c-0.2-0.1-0.4-0.1-0.6-0.1
		c-1.8-3,2.3-2.9,2.5-4.8C235.3,227.8,236.1,228.1,237,228.5z"/>
	<path class="st9" d="M236.5,231.2c0.4-0.2,0.8-0.4,1.3-0.6c0.2,0.2,0.4,0.4,0.6,0.5C237.7,231.2,237.1,231.2,236.5,231.2z"/>
	<path class="st20" d="M237,228.5c-0.9-0.4-1.7-0.7-2.6-1.1c-0.2,1.9-4.3,1.8-2.5,4.8c0,0.2,0.1,0.6-0.1,0.7
		c-5.3,5.2-2.5,11.6-2.8,17.6c-0.1,2.2,1.8,2.2,3.5,2c0.1,0.3,0.2,0.6,0.3,0.9c0.2,0.5,0.3,1,0.5,1.5c-0.1,0.7-0.1,1.4-0.3,2.1
		c-0.8,1.9,0.2,2.3,1.8,2.3c0,1,0,1.9,0,2.9c-2.8-0.4-1.8,2.3-2.9,3.7c-3.9,0-8,0-12.2,0c0.6,1,1.2,2,2.1,3.5
		c-1.1,0.3-2.3,0.8-2.5,0.6c-0.8-1.2-1.4-2.6-2.1-3.8c-2,0.4-3.9,0.8-5.9,1.2c-0.5-5.1-1-10.2-1.5-15.3c0-5.7-0.1-11.4,0-17.1
		c0.1-1.9,0.8-3.7,1.2-5.3c-0.4-1.5-1.2-2.9-1.2-4.4c0.1-11.2,0.5-22.5,0.6-33.7c0-1.3-0.7-2.6-1.1-3.9c0-0.9,0-1.8,0-2.7
		c0.2-0.7,0.6-1.4,0.6-2.1c0.1-5.2,0-10.4,0-16.3c2.4,0,4.8,0,7.1,0c0.2,1.3,0.3,2.5,0.5,4.2c-1.6-1.2-2.7-2-3.6-2.7
		c-0.9,1.1-1.7,2.1-2.8,3.5c1.3,1.8,2.7,3.8,4.2,6c-3.3,3.2-2.6,7.4-2.2,12.1c1.5,0.3,3.3,1.1,4.3,0.6c0.8-0.5,0.7-2.7,1.1-4.3
		c0.6,0,1.5,0,2.4,0c0,2.6-0.3,5.1,0.1,7.4c0.5,2.9,1.7,5.7,2.4,8.6c0.2,0.6-0.1,1.5-0.4,2c-2.7,4.5-2.8,9.3-2.2,14.3
		c0.1,0.8,1.3,1.5,2,2.3c0.8-0.8,1.8-1.5,2.2-2.5c0.5-1.3,0.7-2.8,0.8-4.2c0-1-0.1-2.3-0.7-3.1c-1.9-2.6-1.9-2.9,1.5-4.5
		c0.1,1.4,0.1,2.8,0.2,4.1c2.2,0.4,3.9,0.7,5.7,1c0,0,0,0,0,0c0,1.1,0.1,2.1,0.1,2.9c2.4,0,4.6,0.2,6.8,0c3.8-0.4,4.6,0.2,4.7,4.1
		c0.1,1.7,0,3.4,0,5.1c0.5,0,1,0,1.5,0.1c0.2-1.9,0.3-3.8,0.8-5.7c0.2-0.7,0.9-1.6,1.6-1.9c0.5-0.2,1.8,0.6,1.8,1.1
		c0.4,4.2,3.1,8.4,0.2,12.7c-1.7,0.2-3.4,0.5-5.1,0.7c-0.8-0.5-1.5-1.3-2.4-1.4C240.8,228.3,238.9,228.5,237,228.5z M218,196.4
		c-2.3,2.9-1.9,4.4,1.6,6.9C221.3,200.5,221.1,199.9,218,196.4z M230.1,262.6c-0.2-0.1-0.4-0.3-0.6-0.2c-0.1,0.1-0.2,0.4-0.3,0.6
		c0.2,0.1,0.4,0.3,0.6,0.2C230,263.1,230,262.8,230.1,262.6z"/>
	<path class="st8" d="M237,253.4c-0.7-0.1-1.4-0.2-2.1-0.2c0.1-0.2,0.2-0.5,0.3-0.7C235.8,252.8,236.4,253.1,237,253.4z"/>
	<path class="st23" d="M211.4,267.2c2-0.4,3.9-0.8,5.9-1.2c0.6,1.3,1.2,2.6,2.1,3.8c0.2,0.2,1.4-0.3,2.5-0.6
		c-0.9-1.5-1.5-2.5-2.1-3.5c4.2,0,8.3,0,12.2,0c1.1-1.4,0.1-4.1,2.9-3.7c0.2,0,0.5,0,0.7,0c-0.6,2.8,1.6,4.2,3.1,5.8
		c0.8,0.8,2.6,1.1,3.7,0.8c0.6-0.2,1.1-2.2,1-3.3c-0.3-3,0.3-3.8,3.3-4.1c1.1-0.1,2.2-0.2,3.3-0.3c0-0.3,0-0.6,0-0.9
		c-2.3-1.8-5.2-0.6-7.7-0.9c-0.5,0-1,0-1.4,0c-0.5-0.7-1.1-1.4-1.6-2.1c-0.4,0.5-0.9,0.9-1.3,1.4c-1,0.2-1.9,0.5-2.9,0.7
		c-1.6,0-2.6-0.4-1.8-2.3c0.3-0.6,0.2-1.4,0.3-2.1c6.5,0.4,13.1,0.7,19.6,1.1c-2.9,1.8-0.8,3.1,0.1,3.9c0,2.1,0.2,3.6,0,5.1
		c-0.4,2.6-0.9,5.2-1.7,7.6c-0.2,0.6-1.5,1.2-2.4,1.3c-3,0.4-6,0.5-9,0.8c-5.4,0.5-10.8,1.1-16.2,1.5c-4.1,0.3-8.1,0.5-12.2,0.7
		c0-1.5,0-2.9,0-4.4c0.4-0.3,0.9-0.6,1.3-0.9c-0.4-0.4-0.9-0.8-1.3-1.3C211.4,269.2,211.4,268.2,211.4,267.2z"/>
	<path class="st21" d="M211.4,267.2c0,1,0,1.9,0,2.9c0,0.7,0,1.5,0,2.2c0,1.5,0,2.9,0,4.4c-2.5,0.8-1.5-1.2-1.5-2.1
		c-0.1-7.6,0-15.2,0-22.8C210.4,257,210.9,262.1,211.4,267.2z"/>
	<path class="st3" d="M234.1,207.9c-0.5,0.1-0.9,0.1-1.4,0.2c-0.2-0.8-0.3-1.5-0.5-2.3c0.1-6.1,0.2-12.1,0.3-18.2l0.3,0
		c0.5,0,1,0,1.4,0.1c0.3,0.4,0.5,0.9,0.8,1.3c-0.2,5.3-0.4,10.7-0.5,16C234.3,206,234.2,206.9,234.1,207.9z"/>
	<path class="st20" d="M231.2,184.7c0.4,0.1,0.8,0.2,1.3,0.4c0.1,0.8,0.2,1.7,0.3,2.5l-0.3,0c-0.2,0-0.4,0-0.7,0
		c-2.2-0.1-3.2,0.8-2.8,3.1c0.1,0.9-0.1,1.8-0.1,2.7c-1.7-0.3-3.9,0.9-5.1-1.8c1.8-1.7,3.6-3.3,5.5-5.1c-1-0.3-1.5-0.5-2-0.7
		C228.9,186.4,229.2,182.2,231.2,184.7z"/>
	<path class="st21" d="M231.2,184.7c-2-2.5-2.3,1.7-3.9,1c0.5,0.2,1.1,0.4,2,0.7c-1.9,1.8-3.7,3.4-5.5,5.1c1.2,2.8,3.4,1.5,5.1,1.8
		c0,0.7,0,1.5,0,2.2c-1.9,0.1-2.2,1.5-2.2,3c0,2.2,0,4.3,0,6.5c0,0.2,0,0.5,0,0.7c-3.3,1.5-3.4,1.9-1.5,4.5c0.6,0.8,0.7,2.1,0.7,3.1
		c0,1.4-0.3,2.9-0.8,4.2c-0.4,1-1.4,1.7-2.2,2.5c-0.7-0.8-1.9-1.5-2-2.3c-0.5-4.9-0.5-9.8,2.2-14.3c0.3-0.6,0.6-1.4,0.4-2
		c-0.8-2.9-1.9-5.7-2.4-8.6c-0.4-2.3-0.1-4.8-0.1-7.4c-0.9,0-1.8,0-2.4,0c-0.3,1.6-0.2,3.8-1.1,4.3c-1,0.6-2.8-0.3-4.3-0.6
		c-0.4-4.6-1.1-8.9,2.2-12.1c-1.5-2.2-2.9-4.2-4.2-6c1.1-1.4,1.9-2.3,2.8-3.5c0.8,0.6,1.9,1.4,3.6,2.7c-0.2-1.6-0.4-2.9-0.5-4.2
		c1.2,0,2.4,0,3.7,0c-0.9,4.6,2.5,6.7,6.1,9.1c-1.8,0.3-3.1,0.6-4.4,0.8c0.3,2.5,1.8,3.3,3.5,2.2c1.6-1,2.5-0.9,3.8,0
		c0.5,0.4,1.5,0.1,2.2,0.1c0.4-4.2,0.8-8.2,1.2-12.2c0.5,0,0.9,0,1.4,0c0.5,1.4,1.2,2.8,1.5,4.3c0.4,2.1,0.4,4.3,0.9,6.4
		c0.2,0.9,1.1,2.1,2,2.4c2.5,1.1,5.1,1.7,6-2.3c1.8,1.2,1.7,2.6,0.5,3.3c-1.3,0.7-3,0.9-4.5,0.8c-1.4-0.1-2.9-1-3.4,1.2
		c-0.4,0-0.8,0-1.3,0c-1.1-0.3-2.3-0.7-3.4-1c-0.1,0.2-0.3,0.3-0.4,0.5c0.5,0.4,1.1,0.9,1.6,1.3
		C233.2,183.7,232.2,184.2,231.2,184.7z"/>
	<path class="st19" d="M237.7,182.5c0.5-2.2,2-1.3,3.4-1.2c1.5,0.1,3.2-0.1,4.5-0.8c1.2-0.7,1.3-2.1-0.5-3.3c-0.9,4-3.5,3.4-6,2.3
		c-0.9-0.4-1.8-1.5-2-2.4c-0.5-2.1-0.4-4.3-0.9-6.4c-0.3-1.5-1-2.9-1.5-4.3c1.1-0.2,2.1-0.7,3.2-0.7c4.9,0.2,9.9,0.6,14.6,0.9
		c0,5.6,0,10.9,0,17C247.2,183.1,242.4,182.8,237.7,182.5z M241.8,170.1c-0.9-2.6-2-2.5-3.1-1.7c-0.1,0.4-0.1,0.8-0.2,1.2
		C239.5,169.7,240.5,169.8,241.8,170.1z"/>
	<path class="st19" d="M233.3,166.3c-0.4,4-0.8,7.9-1.2,12.2c-0.7,0-1.7,0.3-2.2-0.1c-1.4-0.9-2.3-1-3.8,0c-1.7,1.1-3.2,0.3-3.5-2.2
		c1.3-0.2,2.5-0.5,4.4-0.8c-3.7-2.4-7-4.5-6.1-9.1C225,166.3,229.2,166.3,233.3,166.3z"/>
	<path class="st19" d="M234.2,183.2c-0.5-0.4-1.1-0.9-1.6-1.3c0.1-0.2,0.3-0.3,0.4-0.5c1.1,0.3,2.3,0.7,3.4,1
		C235.7,182.7,234.9,183,234.2,183.2z"/>
	<path class="st23" d="M250.1,229.2c2.9-4.2,0.2-8.5-0.2-12.7c0-0.4-1.4-1.2-1.8-1.1c-0.7,0.2-1.4,1.1-1.6,1.9
		c-0.4,1.9-0.5,3.8-0.8,5.7c-0.5,0-1,0-1.5-0.1c0-1.7,0-3.4,0-5.1c-0.1-3.8-0.9-4.4-4.7-4.1c-2.2,0.2-4.3,0-6.8,0
		c0-0.8-0.1-1.8-0.1-2.9c5.9-0.2,11.8-0.5,17.7-0.6c0.5,0,1.4,0.4,1.5,0.7c0.7,2.3,1.3,4.7,1.7,7.1c0.3,2.2,0,4.4,0.2,6.6
		C254,227.6,253.4,228.5,250.1,229.2z"/>
	<path class="st23" d="M226.7,205.8c0-0.2,0-0.5,0-0.7c0.7-0.5,1.5-1,2.2-1.5c0.5,0,1,0,1.5,0c0,0.7,0,1.5,0,2.2c0.2,0,0.4,0,0.7,0
		c0.4,0,0.7,0,1.1,0c0.2,0.8,0.3,1.5,0.5,2.3c0,1,0,1.9,0,2.9c-1.8-0.3-3.5-0.6-5.7-1C226.9,208.6,226.8,207.2,226.7,205.8z"/>
	<path class="st21" d="M240.6,259.2c0.5,0,1,0,1.4,0c0.3,2.1-0.5,3.1-2.7,3c-1.3-0.1-2.6-0.1-3.9-0.1c-0.2,0-0.5,0-0.7,0
		c0-1,0-1.9,0-2.9c1-0.2,1.9-0.5,2.9-0.7C238.7,258.7,239.7,258.9,240.6,259.2z"/>
	<path class="st21" d="M218,196.4c3.1,3.5,3.3,4.1,1.6,6.9C216.1,200.8,215.7,199.2,218,196.4z"/>
	<path class="st23" d="M230.1,262.6c-0.1,0.2-0.1,0.5-0.3,0.6c-0.1,0.1-0.4-0.1-0.6-0.2c0.1-0.2,0.1-0.5,0.3-0.6
		C229.7,262.3,229.9,262.5,230.1,262.6z"/>
	<path class="st20" d="M235.5,262.1c1.3,0,2.6,0,3.9,0.1c2.2,0.2,3-0.9,2.7-3c2.6,0.4,5.4-0.9,7.7,0.9c0,0.3,0,0.6,0,0.9
		c-1.1,0.1-2.2,0.2-3.3,0.3c-3,0.2-3.6,1.1-3.3,4.1c0.1,1.1-0.4,3.1-1,3.3c-1.1,0.3-2.9,0-3.7-0.8
		C237.1,266.3,234.9,264.9,235.5,262.1z"/>
	<path class="st20" d="M240.6,259.2c-1-0.2-1.9-0.5-2.9-0.7c0.4-0.5,0.9-0.9,1.3-1.4C239.5,257.8,240.1,258.5,240.6,259.2z"/>
	<path class="st20" d="M211.4,272.3c0-0.7,0-1.5,0-2.2c0.4,0.4,0.9,0.8,1.3,1.3C212.3,271.7,211.9,272,211.4,272.3z"/>
	<path class="st9" d="M232.2,205.7c-0.4,0-0.7,0-1.1,0c-0.2,0-0.4,0-0.7,0c0-0.7,0-1.5,0-2.2c0.5-3.2,1.1-6.3,1.4-9.5
		c0.2-2.2,0-4.4,0.1-6.6c0.2,0,0.4,0,0.7,0C232.4,193.6,232.3,199.7,232.2,205.7z"/>
	<path class="st22" d="M231.9,187.6c0,2.2,0.2,4.4-0.1,6.6c-0.3,3.2-0.9,6.3-1.4,9.5c-0.5,0-1,0-1.5,0c0-2.7,0-5.4,0-8
		c0-0.7,0-1.5,0-2.2c0.1-0.9,0.3-1.9,0.1-2.7C228.7,188.4,229.7,187.4,231.9,187.6z"/>
	<path class="st20" d="M228.9,195.6c0,2.7,0,5.4,0,8c-0.7,0.5-1.5,1-2.2,1.5c0-2.2,0-4.3,0-6.5C226.7,197,227,195.7,228.9,195.6z"/>
	<path class="st21" d="M241.8,170.1c-1.4-0.2-2.4-0.4-3.3-0.5c0.1-0.4,0.1-0.8,0.2-1.2C239.9,167.6,240.9,167.5,241.8,170.1z"/>
	<path class="st22" d="M230.4,205.8c0.2,0,0.4,0,0.7,0C230.9,205.8,230.7,205.8,230.4,205.8z"/>
</g>
<g>
	<path class="st2" d="M323.8,281.5c-3.7,0-7.3,0-11,0c-2.2-0.1-4.4-0.1-6.6-0.2c-3.8,0-7.7,0.1-11.5,0.1c-1.1-0.1-2.2-0.3-3.3-0.2
		c-4.4,0.5-8.3-1-12-3.1c-0.3-0.2-0.5-0.4-0.8-0.5l0,0c-0.4-0.3-0.9-0.7-1.3-1l0.1,0.1c-0.3-0.3-0.5-0.5-0.8-0.8l0.1,0
		c-0.1-0.4-0.3-0.7-0.4-1.1c1.9,0.7,3.8,1.9,5.7,1.9c12.9,0.2,25.8,0.3,38.7,0c2.5,0,5.8-0.1,7-3.5c0.7-0.6,1.4-1.2,2.1-1.7
		c0.2-0.4,0.5-0.9,0.7-1.3c0.3-0.4,0.6-0.9,0.9-1.3c2.2-2.1,3-6.6,1.5-9.1c0-0.6,0-1.3,0-1.9c0.2-0.8,0.3-1.6,0.5-2.4
		c0-0.4,0-0.9,0.1-1.3c0-0.8,0-1.5,0-2.3c0-0.5,0-0.9,0-1.4c0.2-1.1,0.6-2.3,0.6-3.4c0.2-4.3,0.3-8.6,0.5-12.9
		c0.2,0,0.3,0.1,0.3,0.3c0,9.7,0.2,19.4,0,29.1c-0.1,2.6-0.6,5.4-2,7.5c-1.8,2.7-4.5,4.8-6.8,7.3
		C325.1,279.3,324.5,280.5,323.8,281.5z"/>
	<path class="st9" d="M327.7,273.2c-1.2,3.3-4.5,3.4-7,3.5c-12.9,0.3-25.8,0.2-38.7,0c-1.9,0-3.8-1.3-5.7-1.9c-0.2,0-0.4,0-0.6,0
		c-0.2-0.3-0.5-0.6-0.7-0.9c-0.7-2.2-1.4-4.4-2.1-6.6c1.3,1.8,2.6,3.5,4.2,5.5c0.1-2.5,0.2-4.6,0.4-7.1c1.5,1.1,2.4,1.7,3.3,2.4
		c0.2,0.5,0.5,1,0.7,1.4c0.3,4.7,1.3,5.8,5.8,5.8c10.8,0,21.5,0,32.3,0C322.2,274.6,324.9,273.9,327.7,273.2z"/>
	<path class="st8" d="M275.6,274.8c0.2,0,0.4,0,0.6,0c0.1,0.4,0.3,0.7,0.4,1.1C276.3,275.5,276,275.1,275.6,274.8z"/>
	<path class="st8" d="M278.6,277.6c0.3,0.2,0.5,0.4,0.8,0.5c-0.2,0.1-0.3,0.3-0.5,0.4C278.8,278.2,278.7,277.9,278.6,277.6z"/>
	<path class="st8" d="M276.6,275.8c0.3,0.3,0.5,0.5,0.8,0.8C277.1,276.4,276.8,276.1,276.6,275.8z"/>
	<path class="st9" d="M277.1,228.6c-0.5-0.5-1-1-1.6-1.5c-1.2-2.2-2.3-4.4-3.5-6.7l0,0c-0.1-5.5-0.4-10.9-0.2-16.4
		c0.5-12.3-2-25,3.8-36.8c0.2-0.2,0.4-0.4,0.6-0.6c0.3-0.3,0.5-0.5,0.8-0.8c0,0,0,0.1,0,0.1c0.4-0.1,0.8,0,1.1-0.2
		c4-3.7,8.8-4.4,14-4.4c11,0,22.1-0.1,33.1-0.1c0.2,0.1,0.3,0.2,0.6,0.2c0.8,0.7,1.6,1.4,2.4,2.1c0.2,0.3,0.4,0.5,0.6,0.8
		c0.3,0.7,0.6,1.4,0.8,2.2c0,0.4,0.1,0.7,0.1,1.1c-0.1,1.8-0.1,3.6-0.2,5.4c-0.1,0-0.3,0-0.4,0c-0.3-1-0.6-2.1-0.8-3.1
		c-1.8-6.6-4.5-8.8-10.5-7.4c-0.5,0.1-1,0.2-1.4,0.2c-7.4-0.2-14.8-0.3-22.1-0.6c-3.5-0.1-6.4,0.9-9.2,2.8c-0.8,0.5-1.5,1-2.3,1.5
		l0,0c-1.3,0.7-3.2,1-3.7,2.1c-1.7,3.3-2.8,6.9-4.2,10.4c0,0.7-0.1,1.4-0.1,2.1c-0.2,1.3-0.6,2.5-0.7,3.8c-0.1,4.1-0.1,8.3-0.1,12.4
		c0.2,6.2,0.1,12.4,0.7,18.5c0.2,2.5,2,4.8,3,7.2c1.1,4.2,4.5,5.1,8.1,5.9c1,0.2,1.9,0.9,2.9,1.3c0,0.2-0.1,0.4-0.2,0.7
		c-3.1-0.8-6.3-1.7-9.4-2.5C278.6,228,277.8,228.4,277.1,228.6z"/>
	<path class="st8" d="M277.2,165.7c-0.3,0.3-0.5,0.5-0.8,0.8C276.7,166.3,277,166,277.2,165.7z"/>
	<path class="st2" d="M332.7,186.2c-0.1,1.8-0.3,3.6-0.3,5.4c0,3.9-1.8,6.1-5.7,6.4c-3.4,0.2-6.8,0.4-10.1,0.1
		c-1.6-0.1-3-1.5-4.5-2.4c3.5-0.3,7-0.8,10.5-0.7c6.4,0.2,9.1-2.5,8.5-8.8c-0.3-3.2-0.4-6.5-0.7-9.8c-0.1-1.2-0.5-2.3-0.7-3.4
		c0.1-1.8,0.1-3.6,0.2-5.4c0.7,1.6,1.8,3.1,2,4.7c0.5,3.6,0.6,7.4,0.8,11c0,0.7,0,1.5,0,2.2C332.6,185.7,332.6,185.9,332.7,186.2z"
		/>
	<path class="st7" d="M335.7,262.9c0.2,1.5,0.3,2.9,0.5,4.4c-0.2,1.5-0.4,2.9-0.6,4.4c-2.6,4.9-5.9,9-11.8,9.8
		c0.7-1,1.3-2.2,2.2-3.1c2.3-2.4,5-4.5,6.8-7.3c1.3-2.1,1.9-5,2-7.5c0.2-9.7,0.1-19.4,0-29.1c0.3,1.5,1,3,1,4.5
		C335.8,247,335.7,255,335.7,262.9z"/>
	<path class="st7" d="M306.2,281.3c2.2,0.1,4.4,0.1,6.6,0.2C310.5,283,308.3,283.2,306.2,281.3z"/>
	<path class="st9" d="M273.1,256.4c-0.2-1.4-0.5-2.8-0.5-4.2c0-1.8,0.9-3.1,2.8-3.1c5.2,0,10.4,0,15.5,0l0,0
		c0.2,0.9-0.8,2.5,1.3,2.4c-0.5,3.1,0.5,4.8,3.4,4.6c4.2-0.3,8.4-1.3,12.6-2c0.6,0,1.1,0.1,1.7,0.1c-0.4,0.5-0.8,1.3-1.3,1.4
		c-1.9,0.6-4,0.7-5.7,1.6c-4.1,2-8,1.9-11.9-0.1c-0.7-0.7-1.5-1.5-2.2-2.2c0.7-3.1,0.1-3.9-2.9-3.8c-3.4,0-6.8,0.1-10.2,0.1
		c-0.4,0.2-0.8,0.3-1.2,0.5c0.3,0.3,0.7,0.7,1,1c0,0.4,0,0.9,0,1.3c-0.5,0.7-0.9,1.5-1.4,2.2C273.8,256.3,273.4,256.4,273.1,256.4z"
		/>
	<path class="st2" d="M277.1,228.6c0.7-0.1,1.4-0.5,2-0.4c3.2,0.7,6.3,1.6,9.4,2.5c1.3,0.2,2.5,0.7,3.8,0.7c3.9,0.1,7.7,0,11.6,0.1
		c2,0.1,4.2,0.3,4.7,3c-4.3-0.1-8.8-0.8-13-0.2C288.4,235.2,282.6,232.6,277.1,228.6z"/>
	<path class="st27" d="M308.7,234.4c-0.5-2.7-2.6-2.9-4.7-3c-3.9-0.1-7.7,0-11.6-0.1c-1.3,0-2.5-0.5-3.8-0.7
		c0.1-0.2,0.1-0.4,0.2-0.7c5.9-0.1,11.7-0.4,17.6-0.2c1.9,0.1,4.3-0.3,5.8,1.7c0,2-1,3-3,3.1C309,234.6,308.8,234.5,308.7,234.4z"/>
	<path class="st6" d="M309.2,234.6c1.9-0.1,3-1.1,3-3.1c2,2.8,2,2.8,2.4,8.8c0,0.5,0,1,0,1.5c-0.2,0-0.5,0.1-0.7,0.2
		c-0.3-0.8-0.6-1.6-1-2.4C313.1,236.7,310.5,236.1,309.2,234.6z"/>
	<path class="st24" d="M310.1,252c0.9-2.5,1.8-5.1,2.7-7.6c0.3,0.6,0.5,1.1,0.8,1.7c-0.1,0.7-0.2,1.4-0.3,2.1
		c-0.4,0.4-0.8,0.8-1.2,1.2c0,0.9,0.1,1.9-0.1,2.8c-0.2,0.5-0.9,0.9-1.4,1.3C310.5,253,310.3,252.5,310.1,252z"/>
	<path class="st24" d="M312.9,239.5c0.3,0.8,0.6,1.6,1,2.4c0,0.4,0,0.8,0,1.2c-0.3,0-0.6,0-0.9,0
		C312.9,241.9,312.9,240.7,312.9,239.5z"/>
	<path class="st6" d="M313,243.2c0.3,0,0.6,0,0.9,0c0.2,0.7,0.4,1.5,0.5,2.2c-0.2,0.2-0.5,0.5-0.7,0.7c-0.3-0.6-0.5-1.1-0.8-1.7
		C312.9,244,312.9,243.6,313,243.2z"/>
	<path class="st24" d="M310,254.1c-0.6,0-1.1-0.1-1.7-0.1c0.5-0.5,1.1-1,1.6-1.4c0.1,0.3,0.1,0.6,0.2,1
		C310.1,253.7,310,253.9,310,254.1z"/>
	<path class="st9" d="M310.2,253.5c-0.1-0.3-0.1-0.6-0.2-1c0-0.2,0.1-0.4,0.2-0.6c0.2,0.5,0.3,1,0.5,1.5
		C310.5,253.5,310.3,253.5,310.2,253.5z"/>
	<path class="st21" d="M313.6,246.1c0.2-0.2,0.5-0.5,0.7-0.7c0.8-0.7,1.9-1.2,2.4-2c0.8-1.1,1.1-2.5,2.1-4.7
		c1.1,1.7,1.6,2.7,2.2,3.5c0.4,0.6,1,1.5,1.4,1.4c0.7-0.1,1.4-0.7,1.8-1.3c0.7-0.9,1.2-2,2.2-3.6c1.4,2,2.3,3.5,3.5,4.8
		c0.7,0.8,1.8,1.3,2.7,1.9c0,0.5,0,1,0,1.5c-0.7,0.4-1.4,0.7-2.1,1.1c0.1,0.2,0.2,0.4,0.4,0.6c0.6-0.1,1.2-0.2,1.8-0.2
		c0.2,0.8,0.5,1.5,0.7,2.3c0,0.5,0,0.9,0,1.4c0,0.8,0,1.5,0,2.3c0,0.4,0,0.9-0.1,1.3c-0.2,0.8-0.3,1.6-0.5,2.4c0,0.6,0,1.3,0,1.9
		c-0.3,1.3-0.6,2.6-0.8,3.9c-0.7-1.2-1.2-2.8-2.3-3.5c-2.6-1.7-1.8-3.5-0.8-5.6c0.4-0.9,0.5-2,0.9-3.7c-1.8,1.2-2.8,1.8-3.4,2.2
		c-1.1-1.2-1.8-2.8-2.9-3.1c-1.9-0.6-3.8-0.3-4.1,2.6c-0.2,2.3-1.9,3.2-4.1,3.1c-2.6-0.2-2.4-1.7-1.9-3.6c0.2-0.7-0.3-1.6-0.5-2.4
		c0.2-0.4,0.3-0.9,0.5-1.3C313.4,247.5,313.5,246.8,313.6,246.1z M317.3,249c0.1,0.1,0.2,0.1,0.3,0.2
		C317.5,249.1,317.4,249.1,317.3,249c-0.2-0.6-0.4-1.3-0.6-1.9c-0.3,0.2-0.6,0.4-0.9,0.6C316.4,248.1,316.8,248.6,317.3,249z"/>
	<path class="st9" d="M333.4,250.6c-0.2-0.8-0.5-1.5-0.7-2.3c0-0.5,0-1,0-1.5c0-0.5,0-1,0-1.5c0.9-9-2.7-16.6-7.4-24.1
		c-0.8,0.1-2,0.3-3.5,0.5c0.4-1.2,0.7-2,1.3-3.5c-4.2-1.9-8.4-3.9-12.7-5.7c-0.7-0.3-1.7-0.1-2.5-0.1c-2.8-0.2-5.8,0-8.4-0.8
		c-3.1-1-7.4-1.3-6.8-6.4c0.2,0,0.5,0,0.7,0.1c1.1,2.1,2.8,3.2,5,3.6c3.4,0.7,6.8,1.8,10.3,2c10.3,0.7,17.4,5.9,22,14.9
		c1.4,2.8,2.6,5.7,3.8,8.5c-0.1,4.3-0.3,8.6-0.5,12.9C333.9,248.3,333.6,249.4,333.4,250.6z"/>
	<path class="st19" d="M327.7,273.2c-2.7,0.7-5.4,1.4-8.1,2.1c0.3-0.7,0.4-1.6,1-2.1c2.7-2.3,6.7-2.3,8.9-5.3
		c0.1-0.1,1.1,0.5,1.7,0.8c0,0,0.2,0.2,0.2,0.2c-0.3,0.4-0.6,0.9-0.9,1.3c-0.2,0.4-0.5,0.9-0.7,1.3
		C329,272.1,328.4,272.7,327.7,273.2z"/>
	<path class="st9" d="M332,263.7c0.3-1.3,0.6-2.6,0.8-3.9c1.5,2.5,0.7,7-1.5,9.1c0,0-0.2-0.2-0.2-0.2
		C331.4,267.1,331.7,265.4,332,263.7z"/>
	<path class="st9" d="M332.8,257.9c0.2-0.8,0.3-1.6,0.5-2.4C333.1,256.3,333,257.1,332.8,257.9z"/>
	<path class="st9" d="M333.3,254.2c0-0.8,0-1.5,0-2.3C333.3,252.7,333.3,253.5,333.3,254.2z"/>
	<path class="st9" d="M329.7,271.5c0.2-0.4,0.5-0.9,0.7-1.3C330.2,270.7,330,271.1,329.7,271.5z"/>
	<path class="st29" d="M332,263.7c-0.3,1.7-0.6,3.4-0.9,5.1c-0.6-0.3-1.6-0.9-1.7-0.8c-2.3,3-6.3,3-8.9,5.3c-0.5,0.4-0.7,1.4-1,2.1
		c-10.8,0-21.5,0-32.3,0c-4.6,0-5.6-1-5.8-5.8c6.6-2.2,13.4,0.8,20-1.2c0.2-0.1,0.6,0.4,0.9,0.4c4,0,8,0,11.9-0.1
		c0.2,0,0.3-0.5,0.6-1c-3.1-1.3-7.8,1.6-8.5-4.2c-2,0.7-3.5,1.4-5.1,1.8c-3,0.8-6,1.7-9,1.9c-4.2,0.3-4.4-0.2-3.4-4.3
		c0.9-0.7,1.9-1.4,2.6-1.9c-0.2-1.6-0.3-2.8-0.4-3.9c4,2.1,7.9,2.2,11.9,0.1c1.7-0.9,3.9-1,5.7-1.6c0.5-0.2,0.9-1,1.3-1.4
		c0-0.2,0.1-0.4,0.1-0.6c0.2,0,0.3-0.1,0.5,0c0.5-0.4,1.3-0.8,1.4-1.3c0.3-0.9,0.1-1.9,0.1-2.8l0.3,0.1c0,0,0.3,0,0.3,0
		c0.2,0.8,0.7,1.7,0.5,2.4c-0.4,1.9-0.7,3.4,1.9,3.6c2.3,0.1,3.9-0.8,4.1-3.1c0.2-2.9,2.1-3.2,4.1-2.6c1.1,0.3,1.8,1.9,2.9,3.1
		c0.6-0.4,1.6-1,3.4-2.2c-0.4,1.8-0.4,2.9-0.9,3.7c-1.1,2.1-1.8,3.8,0.8,5.6C330.8,260.8,331.2,262.5,332,263.7z M325.4,255.9
		c-0.3-0.2-0.5-0.6-0.7-0.6c-0.2,0-0.6,0.5-0.6,0.6c0.1,0.3,0.5,0.6,0.7,0.9C325,256.4,325.1,256.2,325.4,255.9z"/>
	<path class="st29" d="M274.2,256.3c0.5-0.7,0.9-1.5,1.4-2.2c2.6-0.4,5.1-0.7,7.7-1.2c1.5-0.3,3,1.1,2.2,2.1c-1.8,2-0.1,3.3,0.5,4.9
		c-0.9,3.2-2.2,6.2-5.2,8.1c-0.9-0.7-1.9-1.3-3.3-2.4c-0.1,2.5-0.2,4.5-0.4,7.1c-1.5-2-2.8-3.8-4.2-5.5c0.1-1,0.2-2,0.2-2.9
		c1-0.1,2-0.2,3.3-0.2c0-1.9,0.3-3.6-0.1-5C276,258,274.9,257.2,274.2,256.3z M281,255.8c-0.5,0-0.9,0-1.4,0.1
		c-0.2,2.8-0.8,5.6,0.3,8.3c0.4,0,0.7,0,1.1,0C281,261.4,281,258.6,281,255.8z"/>
	<path class="st21" d="M280.7,268.1c3-1.9,4.2-4.9,5.2-8.1c1,1,1.9,1.9,2.9,2.9c-1,4.1-0.8,4.6,3.4,4.3c3-0.2,6.1-1.1,9-1.9
		c1.6-0.4,3.1-1.1,5.1-1.8c0.8,5.8,5.5,2.9,8.5,4.2c-0.3,0.4-0.4,1-0.6,1c-4,0.1-8,0.1-11.9,0.1c-0.3,0-0.7-0.5-0.9-0.4
		c-6.6,2-13.4-1-20,1.2C281.2,269.1,280.9,268.6,280.7,268.1z"/>
	<path class="st19" d="M274.2,256.3c0.7,0.9,1.9,1.7,2.1,2.7c0.4,1.5,0.1,3.1,0.1,5c-1.3,0.1-2.3,0.2-3.3,0.2c0-2.6,0-5.3,0-7.9
		C273.4,256.4,273.8,256.3,274.2,256.3z"/>
	<path class="st27" d="M274.8,180.9c0-0.7,0.1-1.4,0.1-2.1c1.9,0.2,3-3.1,5.5-0.3c0.8-4.6,0.9-8.6,2.5-12.2l0,0
		c0.8-0.5,1.5-1,2.3-1.5c2.8-1.9,5.7-3,9.2-2.8c7.4,0.3,14.8,0.4,22.1,0.6c0.5,0,1-0.1,1.4-0.2c6-1.4,8.7,0.8,10.5,7.4
		c0.3,1,0.6,2.1,0.8,3.1c0.2,4.8,0.3,9.6,0.6,14.4c0.1,2.6-0.3,4.7-3.2,5.2c-2.6,0.5-5.3,0.4-7.8,1.1c-4.9,1.4-7.3,1-8.7-5.8
		c-0.4-1.8-1.1-2.6-2.9-2.3c-0.3-0.3-0.6-0.5-1-0.8c-1.9-2.6-5.4-2.4-8.4,0.3c-0.4,0.2-0.7,0.3-1.1,0.5c-0.4,0.2-0.8,0.5-1.2,0.7
		l-0.1,0c-0.2,0.3-0.4,0.5-0.6,0.8c-0.1,0.5-0.2,0.9-0.4,1.4c-0.6,0.5-1.3,0.9-1.9,1.4l-0.1,0.1c-2.1-0.1-2.2,1.3-2.3,2.8
		c-0.4-0.3-0.7-0.6-1.4-1.1c-0.5,1.4-1.1,2.7-1.6,4c-0.7,0-1.4,0-2.2,0c0-3.6,0.8-7.6-5-9.3c1,3.1,1.7,5.5,2.5,8
		c-4.5,1.2-5.7-0.1-5.7-4.2C276.9,187.1,275.6,184,274.8,180.9z M287.8,186.4c-0.1-0.2-0.1-0.5-0.3-0.6c-0.1-0.1-0.4,0.1-0.6,0.2
		c0.1,0.2,0.1,0.5,0.3,0.6C287.4,186.6,287.6,186.4,287.8,186.4z"/>
	<path class="st25" d="M274.8,180.9c0.8,3.1,2.1,6.2,2.1,9.3c0,4.1,1.2,5.4,5.7,4.2c-0.8-2.4-1.6-4.9-2.5-8c5.8,1.7,5,5.7,5,9.3
		c1.2,0.9,2.3,1.8,3.4,2.7c0.1-0.3,0.3-0.8,0.3-0.8c0.8,0.9,1.8,2,2.7,3.1c0.3,1.5,0.6,2.9,0.9,4.4c-0.6,5.1,3.8,5.4,6.8,6.4
		c2.6,0.9,5.6,0.6,8.4,0.8c0.8,0.1,1.8-0.2,2.5,0.1c4.3,1.8,8.5,3.8,12.7,5.7c-0.5,1.5-0.8,2.3-1.3,3.5c1.5-0.2,2.7-0.4,3.5-0.5
		c4.7,7.5,8.3,15.1,7.4,24.1c-0.9-0.6-2-1.1-2.7-1.9c-1.1-1.3-2.1-2.8-3.5-4.8c-1,1.7-1.5,2.7-2.2,3.6c-0.5,0.6-1.2,1.2-1.8,1.3
		c-0.4,0.1-1-0.9-1.4-1.4c-0.6-0.9-1.1-1.8-2.2-3.5c-0.9,2.2-1.3,3.6-2.1,4.7c-0.6,0.8-1.6,1.3-2.4,2c-0.2-0.7-0.4-1.5-0.5-2.2
		c0-0.4,0-0.8,0-1.2c0.2-0.1,0.4-0.1,0.7-0.2c0.4-0.2,0.7-0.5,1.1-0.7c-0.3-0.3-0.7-0.5-1-0.8c-0.4-6-0.4-6-2.4-8.8
		c-1.5-2-3.9-1.7-5.8-1.7c-5.9-0.2-11.7,0.1-17.6,0.2c-1-0.5-1.9-1.1-2.9-1.3c-3.6-0.7-7.1-1.6-8.1-5.9c0.3-0.7,0.6-2,1-2.1
		c2.6-0.5,2.1-2.3,1.8-3.9c-0.3-1.9-0.9-3.7-1.5-5.9c-0.8,0.7-1.5,1.4-2.5,2.3c-0.4-1-0.9-1.7-1-2.4c-0.3-3.4-0.5-6.7-0.8-10.1
		c-0.1-1.2-0.6-2.4-0.9-3.7c0-4.1,0-8.3,0.1-12.4C274.2,183.4,274.6,182.2,274.8,180.9z M294.8,224c-0.1-0.4-0.2-0.8-0.2-1.2
		c-4.1-0.6-8.2-1.2-12.7-1.8c-1,1.8,0.1,3.3,2,3.7c2.8,0.6,5.7,0.7,8.6,0.8C293.3,225.5,294,224.5,294.8,224z"/>
	<path class="st29" d="M307.2,185.6c1.8-0.3,2.5,0.5,2.9,2.3c1.4,6.8,3.7,7.2,8.7,5.8c2.5-0.7,5.2-0.7,7.8-1.1
		c2.9-0.5,3.4-2.6,3.2-5.2c-0.3-4.8-0.4-9.6-0.6-14.4c0.1,0,0.3,0,0.4,0c0.2,1.1,0.6,2.3,0.7,3.4c0.3,3.3,0.4,6.5,0.7,9.8
		c0.6,6.3-2,9-8.5,8.8c-3.5-0.1-7,0.5-10.5,0.7l0.1,0c-0.3-0.3-0.6-0.5-0.9-0.8c-1.1-2-2.3-4-3.4-6
		C307.6,187.8,307.4,186.7,307.2,185.6z"/>
	<path class="st29" d="M274,197.1c0.3,1.2,0.7,2.4,0.9,3.7c0.3,3.4,0.5,6.7,0.8,10.1c0.1,0.7,0.6,1.4,1,2.4c1-0.9,1.7-1.6,2.5-2.3
		c0.6,2.2,1.2,4,1.5,5.9c0.3,1.6,0.8,3.4-1.8,3.9c-0.5,0.1-0.7,1.3-1,2.1c-1.1-2.4-2.8-4.7-3-7.2C274.1,209.5,274.2,203.3,274,197.1
		z"/>
	<path class="st25" d="M282.9,166.3c-1.5,3.7-1.7,7.7-2.5,12.2c-2.5-2.9-3.6,0.5-5.5,0.3c1.4-3.5,2.5-7.1,4.2-10.4
		C279.7,167.4,281.6,167,282.9,166.3z"/>
	<path class="st25" d="M285.1,164.9c-0.8,0.5-1.5,1-2.3,1.5C283.6,165.9,284.4,165.4,285.1,164.9z"/>
	<path class="st2" d="M307.2,185.6c0.2,1.1,0.5,2.3,0.7,3.4c-0.4,0-0.7,0-1.1,0c-7.9-0.1-12.9,5.1-12.9,13.1c0,1.1-0.4,2.1-0.6,3.2
		c-0.2,0-0.5-0.1-0.7-0.1c-0.3-1.5-0.6-2.9-0.9-4.4c0.3-3.6,0.6-7.2,0.9-10.8l0.1-0.1c0.6-0.5,1.3-0.9,1.9-1.4
		c0.1-0.5,0.2-0.9,0.4-1.4c0.2-0.3,0.4-0.5,0.6-0.8l0.1,0c0.4-0.2,0.8-0.5,1.2-0.7c0.4-0.2,0.7-0.3,1.1-0.5c2.8-0.1,5.6-0.2,8.4-0.3
		C306.5,185.1,306.8,185.3,307.2,185.6z"/>
	<path class="st2" d="M311.3,195c0.3,0.3,0.6,0.5,0.9,0.8C311.9,195.5,311.6,195.2,311.3,195z"/>
	<path class="st30" d="M332.7,186.2c0-0.2,0-0.5,0-0.7C332.6,185.7,332.6,185.9,332.7,186.2z"/>
	<path class="st19" d="M288.8,262.9c-1-1-1.9-1.9-2.9-2.9c-0.5-1.6-2.2-2.8-0.5-4.9c0.9-1-0.7-2.4-2.2-2.1c-2.6,0.5-5.1,0.8-7.7,1.2
		c0-0.4,0-0.9,0-1.3c0-0.5,0.1-1,0.1-1.6c3.4,0,6.8-0.1,10.2-0.1c1,1.3,2,2.5,2.9,3.8c0.7,0.7,1.5,1.5,2.2,2.2
		c0.1,1.2,0.2,2.4,0.4,3.9C290.7,261.5,289.8,262.2,288.8,262.9z"/>
	<path class="st29" d="M288.8,254.9c-1-1.3-2-2.5-2.9-3.8C288.9,251,289.5,251.7,288.8,254.9z"/>
	<path class="st29" d="M275.7,251.2c0,0.5-0.1,1-0.1,1.6c-0.3-0.3-0.7-0.7-1-1C274.9,251.6,275.3,251.4,275.7,251.2z"/>
	<path class="st21" d="M314.6,240.2c0.3,0.3,0.7,0.5,1,0.8c-0.4,0.2-0.7,0.5-1.1,0.7C314.5,241.2,314.5,240.7,314.6,240.2z"/>
	<path class="st6" d="M312.9,249.5l-0.3,0l-0.3-0.1c0.4-0.4,0.8-0.8,1.2-1.2C313.2,248.7,313,249.1,312.9,249.5z"/>
	<path class="st25" d="M332.6,246.8c0,0.5,0,1,0,1.5c-0.6,0.1-1.2,0.2-1.8,0.2c-0.1-0.2-0.2-0.4-0.4-0.6
		C331.2,247.5,331.9,247.2,332.6,246.8z"/>
	<path class="st25" d="M317.3,249c-0.5-0.5-1-0.9-1.5-1.4c0.3-0.2,0.6-0.4,0.9-0.6C316.9,247.7,317.1,248.4,317.3,249L317.3,249z"/>
	<path class="st25" d="M317.3,249c0.1,0.1,0.2,0.1,0.3,0.2C317.5,249.1,317.4,249.1,317.3,249L317.3,249z"/>
	<path class="st21" d="M325.4,255.9c-0.2,0.3-0.4,0.6-0.6,0.8c-0.3-0.3-0.6-0.5-0.7-0.9c0-0.1,0.4-0.6,0.6-0.6
		C324.9,255.2,325.1,255.6,325.4,255.9z"/>
	<path class="st21" d="M281,255.8c0,2.8,0,5.6,0,8.4c-0.4,0-0.7,0-1.1,0c-1.1-2.7-0.5-5.5-0.3-8.3
		C280.1,255.8,280.5,255.8,281,255.8z"/>
	<path class="st29" d="M292.5,190c-0.3,3.6-0.6,7.2-0.9,10.8c-1-1.1-1.9-2.2-2.7-3.1c0,0-0.2,0.5-0.3,0.8c-1.1-0.9-2.3-1.8-3.4-2.7
		c0.7,0,1.4,0,2.2,0c1-1,1.9-1.9,2.9-2.9C290.3,191.2,290.5,189.8,292.5,190z"/>
	<path class="st29" d="M306.2,184.8c-2.8,0.1-5.6,0.2-8.4,0.3C300.8,182.4,304.3,182.2,306.2,184.8z"/>
	<path class="st25" d="M290.3,192.7c-1,1-1.9,1.9-2.9,2.9c0.5-1.3,1-2.6,1.6-4C289.5,192.1,289.9,192.4,290.3,192.7z"/>
	<path class="st29" d="M294.5,188.5c-0.6,0.5-1.3,0.9-1.9,1.4C293.2,189.4,293.9,188.9,294.5,188.5z"/>
	<path class="st25" d="M287.8,186.4c-0.2,0.1-0.5,0.3-0.6,0.2c-0.1-0.1-0.2-0.4-0.3-0.6c0.2-0.1,0.5-0.3,0.6-0.2
		C287.7,185.8,287.7,186.2,287.8,186.4z"/>
	<path class="st29" d="M296.7,185.6c-0.4,0.2-0.8,0.5-1.2,0.7C295.9,186,296.3,185.8,296.7,185.6z"/>
	<path class="st29" d="M295.5,186.3c-0.2,0.3-0.4,0.5-0.6,0.8C295.1,186.8,295.3,186.6,295.5,186.3z"/>
	<path class="st29" d="M294.8,224c-0.8,0.5-1.5,1.5-2.3,1.5c-2.9-0.1-5.8-0.2-8.6-0.8c-1.9-0.4-3-1.9-2-3.7
		c4.5,0.6,8.6,1.2,12.7,1.8C294.6,223.2,294.7,223.6,294.8,224z"/>
</g>
</svg>
